<?xml version="1.0" encoding="utf-8"?>
<!-- Generator: Adobe Illustrator 21.0.0, SVG Export Plug-In . SVG Version: 6.00 Build 0)  -->
<svg version="1.1" id="Слой_1" xmlns="http://www.w3.org/2000/svg" xmlns:xlink="http://www.w3.org/1999/xlink" x="0px" y="0px"
	 viewBox="0 0 109.1 148.1" style="enable-background:new 0 0 109.1 148.1;" xml:space="preserve">
<style type="text/css">
	.st0{fill:none;stroke:#000000;stroke-miterlimit:10;}
</style>
<g>
	<g>
		<path d="M28.2,75c0.1,2.4,0.3,4.8,0.6,7.3c0,0.6,1,0.5,1-0.1c-0.3-2.4-0.5-4.8-0.6-7.3C29.1,74.4,28.1,74.4,28.2,75L28.2,75z"/>
	</g>
</g>
<g>
	<g>
		<path d="M62.9,82.1c-5.7-2-11.7-3.3-17.6-4.6c-2.9-0.6-5.8-1.1-8.7-1.8c-2.5-0.5-5.4-1.6-8-1.5c-0.6,0-0.5,1,0.1,1
			c2.8-0.2,6,1.1,8.7,1.7c2.9,0.6,5.8,1.2,8.7,1.7c5.7,1.1,11.3,2.5,16.7,4.3C63.3,83.2,63.5,82.2,62.9,82.1L62.9,82.1z"/>
	</g>
</g>
<g>
	<g>
		<path d="M62.5,82.2c-11.2,1-22.2,0.5-33.4-0.1c-0.6-0.1-0.5,0.9,0.1,1c11.2,0.6,22.2,1.1,33.4,0.1C63.3,83.1,63.2,82.2,62.5,82.2
			L62.5,82.2z"/>
	</g>
</g>
<g>
	<g>
		<path d="M45.8,83.8c0.2,2.5,0.4,5.1,0.9,7.6c0.1,0.6,1.1,0.5,1-0.1c-0.4-2.5-0.7-5.1-0.9-7.6C46.7,83,45.7,83.1,45.8,83.8
			L45.8,83.8z"/>
	</g>
</g>
<g>
	<g>
		<path d="M36.9,83.6c0.9,5.8,0.2,11.7,2,17.4c0.2,0.6,1.1,0.3,1-0.4c-1.8-5.5-1.2-11.4-1.9-17.1C37.8,82.9,36.8,83,36.9,83.6
			L36.9,83.6z"/>
	</g>
</g>
<g>
	<g>
		<path d="M56.7,104.7c-5.5-1.6-11.4-2.5-16.9-4.1c-0.6-0.2-0.9,0.8-0.2,1c5.5,1.7,11.4,2.5,16.9,4.1
			C57,105.9,57.3,104.9,56.7,104.7L56.7,104.7z"/>
	</g>
</g>
<g>
	<g>
		<path d="M44.8,102.6c-2.8,1-5.7,2-8.4,3.3c-2.5,1.2-5,3.2-7.8,3.8c-1.6,0.3-3.8,0.1-4.8,1.7c-0.6,1,0.5,3,0.5,3s0.8,0.2,1.9,0.3
			c0-0.2,0.1-0.4,0.3-0.5c0,0,0,0,0,0c0,0,0-0.1,0-0.1c-1.3,0-1.5-1-0.7-3c0.7-0.1,1.4-0.3,2.2-0.3c1.6-0.3,2.9-0.8,4.2-1.5
			c4.2-2.4,8.3-4.2,12.9-5.8C45.8,103.3,45.4,102.5,44.8,102.6z"/>
	</g>
</g>
<g>
	<g>
		<path d="M86.3,110.3c-0.3-0.1-1.2,0-1.4-0.1c-0.1-0.1,0-0.7-0.2-0.8c-0.5-0.8-0.9-1.3-1.5-1.9c-1.8-1.5-4.1-2.2-6.2-3.1
			c-2.7-1-5.2-1.9-8.1-2.2c-0.6-0.1-0.8,1-0.2,1c4,0.4,8.2,1.9,11.8,3.7c1,0.5,2.6,1.3,3.2,2.5c0,0,0.2,1.1,0.4,1.3
			c0.7,0.8,1.6,0.4,2.5,0.7c1.3,0.1,0.9,0.9-1.3,2.6c-0.1,0-0.3,0-0.4,0c0.3,0.2,0.5,0.4,0.8,0.8c0.2,0,0.4-0.1,0.6-0.1
			c1.3-0.3,2.6-1.3,2.5-2.7C88.5,110.6,87.4,110.4,86.3,110.3z"/>
	</g>
</g>
<g>
	<g>
		<path d="M56.7,105.7c7.1-0.7,15.2-2.8,20.7-7.6c1.2-1.1,2.2-2.3,3.3-3.5c1.2-1.2,2-2.5,2.8-4.1c1.6-3.1,2.8-6.3,3-9.8
			c0.1-0.6-0.9-0.5-1,0.1c-0.2,3.6-1.5,6.9-3.2,10c-0.8,1.5-1.6,2.4-2.8,3.6C78.3,95.7,77.4,97,76,98c-5.6,4-12.5,6-19.2,6.7
			C56,104.8,56,105.8,56.7,105.7L56.7,105.7z"/>
	</g>
</g>
<g>
	<g>
		<path d="M86.4,80.2c-0.9-3.4-1.3-6.9-2.3-10.4c-0.9-2.9-1.9-6.2-3.1-8.9c-0.2-0.6-1.2-0.2-1,0.4c1.3,2.8,2.3,6,3.1,8.9
			c1,3.4,1.4,6.9,2.3,10.4C85.6,81.2,86.6,80.9,86.4,80.2L86.4,80.2z"/>
	</g>
</g>
<g>
	<g>
		<path d="M80.3,60.5c-1.9-0.7-3.9-1.7-5.9-2.5c-2.1-0.9-4.2-1.6-6.3-2.4c-0.6-0.2-1.1,0.7-0.4,0.9c2.4,0.8,4.8,1.8,7.2,2.7
			c1.7,0.7,3.5,1.8,5.3,2.3C80.7,61.7,80.9,60.6,80.3,60.5L80.3,60.5z"/>
	</g>
</g>
<g>
	<g>
		<path d="M62.1,68c1.6,0.2,3.2,0.9,4.7,1.3c1.3,0.4,3.4,0.5,3.9,1.8c1,2.6,0.9,6.1,1.3,8.8c0,0.6,1,0.5,1-0.1
			c-0.2-2.2-0.5-4.3-0.8-6.5c-0.2-1-0.1-2.9-0.6-3.8c-0.5-0.8-2.2-0.8-2.9-0.9c-2.1-0.6-4.1-1.5-6.3-1.8
			C61.6,66.9,61.4,67.9,62.1,68L62.1,68z"/>
	</g>
</g>
<g>
	<g>
		<path d="M47,92c5.1,2.2,10.8,2.4,16,0.4c2.5-1,3.7-2.8,5.3-4.9c1.8-2.2,3.7-4.4,4.7-7c0.3-0.6-0.7-1.1-0.9-0.4
			c-1,2.3-2.5,4.2-4.1,6.1c-1.7,2.1-2.9,4.2-5.5,5.3c-4.8,2-10.4,1.7-15.2-0.3C46.8,90.8,46.4,91.8,47,92L47,92z"/>
	</g>
</g>
<g>
	<g>
		<path d="M53.3,37.4c-0.8,2.1-1.3,4.1-1.7,6.3c-0.1,0.3,0.1,0.7,0.5,0.6c0.4,0,3.4-0.6,3.6-0.5c0.2,0.2-1,3-1.2,3.3
			c-0.8,2.5-1.7,4.8-2.6,7.2c-0.9,2.1-2,4-2.9,6.1c-0.7,1.8-0.9,4.4-2.5,5.8c0.2,0.1,0.5,0.2,0.7,0.3l0-0.1c-0.2-0.6-1.2-0.2-1,0.4
			l0,0.1c0.1,0.3,0.5,0.5,0.7,0.3c1.9-1.7,2-4.3,3-6.5c1.4-3.2,3-6.3,4.2-9.6c0.5-1.3,0.9-2.7,1.3-4c0.3-0.7,1.2-2.6,1.1-3.3
			c-0.4-1.6-3.6-0.5-4.6-0.3c0.2,0.2,0.3,0.4,0.5,0.6c0.4-2.1,0.9-4.1,1.6-6C54.4,37.2,53.5,36.8,53.3,37.4L53.3,37.4z"/>
	</g>
</g>
<g>
	<g>
		<path d="M53.7,38c9.1,2.4,18.1,4.7,27.2,7c0.6,0.2,0.8-0.9,0.2-1c-9.1-2.3-18.1-4.6-27.2-7C53.3,36.8,53.1,37.8,53.7,38L53.7,38z"
			/>
	</g>
</g>
<g>
	<g>
		<path d="M80.5,44.2c-3.1,1.2-6.3,2.3-9.5,3.1c-0.6,0.1-0.3,1.1,0.4,1c3.3-0.8,6.4-1.9,9.5-3.1C81.5,44.9,81.1,44,80.5,44.2
			L80.5,44.2z"/>
	</g>
</g>
<g>
	<g>
		<path d="M46.6,67.4c4.4,0.5,9,2.4,13.3,3.6c0.6,0.2,0.9-0.8,0.2-1c-4.3-1.2-8.8-3.1-13.3-3.6C46.1,66.3,46,67.3,46.6,67.4
			L46.6,67.4z"/>
	</g>
</g>
<g>
	<g>
		<path d="M70.2,47.6c-0.7,2.2-1.7,4.1-2.6,6.2c-0.8,2-1.4,3.6-2.6,5.5c-1.3,1.8-1.9,4-2.9,5.9c-0.9,1.7-1.7,3.3-2.1,5.2
			c-0.2,0.6,0.9,0.8,1,0.2c0.4-2.3,1.6-4.3,2.7-6.4c0.4-1,0.9-2.1,1.3-3.1c0.5-1,1.3-1.9,1.9-2.8c1-1.6,1.3-3.6,2.2-5.3
			c0.9-1.8,1.6-3.4,2.1-5.2C71.4,47.1,70.4,47,70.2,47.6L70.2,47.6z"/>
	</g>
</g>
<g>
	<g>
		<path d="M77.9,80c-1.5,0.3-2.2,1.9-1.9,3.3c0.3,1.6,2.7,2.2,4,1.8s2.3-1.9,1.9-3.2c-0.5-2-2.5-2.1-4.2-1.8c-0.3,0-0.3,0.5,0,0.5
			c1.1-0.2,2.3-0.4,3.1,0.5c1,0.9,0.9,2.4-0.2,3.3c-0.9,0.7-2.4,0.7-3.2,0c-0.7-0.6-1-1-0.9-1.9c0.1-0.9,0.5-1.7,1.5-1.9
			C78.2,80.4,78.2,79.9,77.9,80L77.9,80z"/>
	</g>
</g>
<g>
	<g>
		<path d="M59.2,52.4c-1.4,0.1-2.9,1.1-2.3,2.8s2.4,2.3,4,1.9c1.6-0.2,2.3-1.5,1.8-2.9c-0.6-1.7-2.2-2-3.8-1.8c-0.3,0-0.3,0.5,0,0.5
			c1-0.2,2.1-0.2,2.8,0.5c1.1,1,0.8,2.8-0.7,3.2c-1,0.3-2.4,0.1-3.1-0.8c-0.2-0.3-0.5-0.7-0.6-1c-0.3-1.3,1-1.8,2-1.9
			C59.6,52.9,59.5,52.4,59.2,52.4L59.2,52.4z"/>
	</g>
</g>
<g>
	<g>
		<path d="M28.4,46c0.6,1.2,1.2,2,2.5,2.4c0.1,0,0.2,0,0.2-0.1c0.6-3.7,1-9,5.1-10.8c4.9-2.1,9.5,2,11.2,6.3c3.4,8,0,18.7-7.9,22.6
			c-3.9,1.9-8.2,3.1-12.4,1.9c-1.7-0.4-3.8-1.4-3.7,1.1c0.1,1.1,1.6,2.9,0.6,3.7c-0.3,0.2-2.1,0.3-2.4,0.3c-2-0.5-1.7-2.8-1.7-4.3
			c0-2.4,0.2-4.9,1.2-7.2c1-2.4,3.1-3.4,5.2-4.7c1.9-1.1,4.3-2.4,2.8-4.9c-1.1-1.9-9-9.4-4.7-10.9c0.2,0,0.1-0.3-0.1-0.2
			c-0.6,0.2-1.2,0.4-1.8,0.6c-0.1,0-0.1,0.1-0.1,0.2c1,3.4,2.7,6.3,5.1,9c3.5,3.9-0.5,5.4-3.3,7.1c-1.2,0.7-2.1,1.5-2.8,2.7
			c-1.8,3-2.1,7.6-1.7,10.9c0,0.5,0.1,1.6,0.6,1.9c0.9,0.5,3.5-0.2,4.5-0.3c0.1,0,0.1-0.1,0.1-0.2c-0.4-0.8-1.1-1.8-1.2-2.6
			c-0.3-3.7,1.9-2.2,3.1-1.9c1.7,0.5,3.4,0.6,5.2,0.4c3.4-0.4,6.8-1.8,9.6-3.5c5.2-3.3,7.8-10.8,7.1-16.7
			c-0.4-5.3-3.7-11.5-9.4-11.9c-2.3-0.1-4.6,0.8-5.9,2.7c-0.8,1.3-1.3,2.6-1.7,4c-0.4,1.7-0.7,7.5-3,2.3
			C28.6,45.6,28.3,45.8,28.4,46L28.4,46z"/>
	</g>
</g>
<g>
	<g>
		<path d="M24.5,41.4c0.7-0.2,1.5-0.1,1.9,0.6c0.3,0.4,0.5,1.1,0.7,1.5c0.4,0.9,0.8,1.8,1.4,2.6c0.1,0.1,0.3,0,0.2-0.1
			c-0.9-1.4-1.4-3.1-2.2-4.6c-0.5-0.9-1.2-0.4-2-0.2C24.2,41.2,24.3,41.4,24.5,41.4L24.5,41.4z"/>
	</g>
</g>
<line class="st0" x1="24.9" y1="114.1" x2="85.6" y2="114.4"/>
</svg>
