<?xml version="1.0" encoding="utf-8"?>
<!-- Generator: Adobe Illustrator 21.0.0, SVG Export Plug-In . SVG Version: 6.00 Build 0)  -->
<svg version="1.1" id="Слой_1" xmlns="http://www.w3.org/2000/svg" xmlns:xlink="http://www.w3.org/1999/xlink" x="0px" y="0px"
	 viewBox="0 0 109.1 148.1" style="enable-background:new 0 0 109.1 148.1;" xml:space="preserve">
<style type="text/css">
	.st0{fill:none;stroke:#070707;stroke-width:0.25;stroke-miterlimit:10;}
</style>
<g>
	<g>
		<path d="M51.4,49.8C51,55,52.2,60.1,54.8,64.7c0.2,0.4,0.8,0.3,0.9-0.1c2.2-6.4,9.4-11.6,15.9-13c7.1-1.5,13,2.7,15.3,9.3
			c2.5,7.1-0.1,14.8-3.3,21.3c-1.7,3.3-3.6,6.1-6.8,8.1c-2.7,1.7-5.6,3.3-8.6,4.6c-12.6,5.8-26.6,3.4-38-4c-1.1-0.7-2.6-2.5-4-1.4
			c-1.6,1.3-1.9,5.2-1.8,7.1c0,1.2,0.3,2.2,0.4,3.4c0.4,2.8-0.4,4.2-2.7,5.7c-2.9,1.7-3.8-1-4.4-3.4c-0.5-1.9-0.8-3.9-0.7-5.9
			c0.1-7.1,4.1-13.6,9.7-17.7c6.4-4.7,14.2-5.3,21.9-5.7c0.3,0,0.6-0.3,0.5-0.6c-1.3-3.9-2.4-7.9-3.3-12c-0.4-2.2-1.3-5-0.6-7.2
			c0.8-2.5,3.5-3.7,5.9-3c0.6,0.2,0.9-0.8,0.3-1c-3.6-0.9-7.1,1.4-7.3,5.2c-0.2,2.8,0.7,5.9,1.3,8.6c0.7,3.3,1.7,6.5,2.8,9.7
			c0.2-0.2,0.3-0.4,0.5-0.6c-7.5,0.4-15.1,1-21.6,5.3C22,80.6,17.9,85.9,16.5,92c-0.8,3.4-0.7,7.1,0.3,10.5c0.5,1.8,1.2,5.2,3.6,5
			c2.2-0.2,5.3-2.8,5.9-4.8c0.4-1.3-0.3-2.6-0.5-3.8c-0.4-2.3-0.4-5.6,0.9-7.7c0.8-1.4,1.4-0.7,2.5,0c0.8,0.5,1.6,1,2.4,1.5
			c1.6,1,3.4,1.9,5.1,2.6c3.4,1.5,7,2.6,10.7,3.2c7.1,1.2,14.1,0.3,20.7-2.6c3.8-1.7,7.8-3.6,11.1-6.1c2.9-2.2,4.6-5.3,6.1-8.5
			c3.1-6.6,5.3-14.4,2.5-21.5c-2.5-6.4-8.5-10.7-15.5-9.5c-7.1,1.2-15.1,6.9-17.4,13.9c0.3,0,0.6-0.1,0.9-0.1
			c-2.5-4.4-3.7-9.3-3.3-14.4C52.4,49.1,51.4,49.1,51.4,49.8L51.4,49.8z"/>
	</g>
</g>
<polygon class="st0" points="66.6,62.6 67.3,63.2 67.6,63.8 67.7,64.6 67.5,65.4 67.1,66 66.6,66.6 65.8,66.6 65.1,66.6 64.1,65.9 
	63.6,65.1 63.2,64 62.2,63.2 61.1,62.4 60.7,61.6 60.6,60.9 60.7,60.3 61.5,59.5 61.9,59.4 62.4,59.2 63.1,59.5 64.4,60.7 
	65.2,61.6 65.8,62 "/>
<polyline class="st0" points="72.7,60.3 72.7,61.2 72.5,61.9 71.8,62.5 70.9,63 70.2,63.1 69,63.4 68.5,63.6 67.8,64.5 "/>
<polyline class="st0" points="74.6,62.4 74.3,63.2 73.5,64 72.6,64.4 71.5,64.3 70.4,64.3 69.3,64.5 68.2,65.1 67.5,65.4 67.2,65.8 
	68,66 68.9,66.2 70.1,66.9 71.2,67.9 72.1,68.6 73,68.8 73.9,68.6 74.5,68.2 "/>
<polyline class="st0" points="74.4,65.4 74,66 73.2,66.4 72.1,66.5 71.3,66.2 69.9,65.3 69.1,65.1 68.4,65.1 67.6,65.4 "/>
<polyline class="st0" points="73.1,70.1 73.1,69.2 72.6,68.3 71.8,67.9 70.1,67.6 68.8,67.3 67.6,66.5 67.2,66 "/>
<polyline class="st0" points="70.9,71.7 71.1,70.9 70.8,69.8 70.1,69.1 69,68.6 68,68.2 67.2,67.3 66.9,66.6 66.9,66.2 67.3,66.3 
	67.9,67.2 68.1,67.9 68,69.1 67.7,70.5 68.1,71.5 68.6,72.2 69.3,72.6 69.6,72.6 "/>
<polyline class="st0" points="67,73.6 66.2,73.1 65.8,71.9 66,70.8 66.8,69.3 67,68.1 66.9,67.2 66.8,66.4 "/>
<line class="st0" x1="67.8" y1="64.4" x2="67.7" y2="64.6"/>
<polygon class="st0" points="73.1,85.6 72.2,85.5 71.6,85.1 71.2,84.4 70.9,83.6 71,82.9 71.2,82.2 71.9,81.8 72.5,81.3 73.6,81.5 
	74.5,82 75.4,82.7 76.7,82.9 78,83.1 78.7,83.6 79.2,84.1 79.4,84.7 79.1,85.8 78.8,86.1 78.4,86.4 77.7,86.5 76,86.2 74.9,85.8 
	74.1,85.7 "/>
<polyline class="st0" points="68.9,90.6 68.6,89.9 68.4,89.1 68.6,88.3 69.2,87.5 69.8,87 70.7,86.1 71,85.6 71.2,84.6 "/>
<polyline class="st0" points="66.4,89.8 66.1,88.9 66.4,87.9 67.1,87.1 68.1,86.6 68.9,86 69.9,85.3 70.5,84.3 70.9,83.6 71,83.1 
	70.2,83.4 69.3,83.7 68,83.6 66.5,83.3 65.4,83.1 64.5,83.5 63.8,84.1 63.5,84.7 "/>
<polyline class="st0" points="65,87.1 65,86.3 65.5,85.6 66.4,84.9 67.3,84.8 69,85 69.8,84.7 70.4,84.3 70.9,83.7 "/>
<polyline class="st0" points="63.7,82.3 64.2,83.1 65.1,83.7 66,83.6 67.6,83 68.9,82.7 70.3,82.7 71,83 "/>
<polyline class="st0" points="64.8,79.9 65.1,80.7 65.9,81.5 66.9,81.7 68.1,81.6 69.2,81.5 70.3,81.9 70.9,82.3 71.1,82.7 
	70.7,82.8 69.7,82.3 69.2,81.7 68.7,80.7 68.2,79.3 67.4,78.6 66.6,78.3 65.9,78.3 65.5,78.4 "/>
<polyline class="st0" points="67.3,76.2 68.2,76.4 69.2,77.2 69.6,78.2 69.6,79.9 70,81 70.6,81.8 71.1,82.4 "/>
<line class="st0" x1="71.2" y1="84.7" x2="71.2" y2="84.5"/>
</svg>
