<?xml version="1.0" encoding="utf-8"?>
<!-- Generator: Adobe Illustrator 21.0.0, SVG Export Plug-In . SVG Version: 6.00 Build 0)  -->
<svg version="1.1" id="Слой_1" xmlns="http://www.w3.org/2000/svg" xmlns:xlink="http://www.w3.org/1999/xlink" x="0px" y="0px"
	 viewBox="0 0 109.1 148.1" style="enable-background:new 0 0 109.1 148.1;" xml:space="preserve">
<style type="text/css">
	.st0{fill:none;stroke:#000000;stroke-width:0.5;stroke-miterlimit:10;}
	.st1{fill:none;stroke:#000000;stroke-miterlimit:10;}
	.st2{fill:none;stroke:#000000;stroke-width:0.75;stroke-miterlimit:10;}
	.st3{fill:none;stroke:#000000;stroke-width:0.25;stroke-miterlimit:10;}
</style>
<g>
	<g>
		<path d="M61.6,57.8c-0.8-5.1-10.4-5-11.7-0.4c-0.1,0.3,0.4,0.4,0.5,0.1c1.2-4.1,10-4.2,10.8,0.4C61.1,58.2,61.6,58.1,61.6,57.8
			L61.6,57.8z"/>
	</g>
</g>
<g>
	<g>
		<path d="M61.1,58c0.1,0.8-0.1,1.3-0.2,2.1c-0.1,0.7-0.1,1.4-0.2,2.1c-0.1,0.3,0.4,0.4,0.5,0.1c0.2-0.8,0.1-1.7,0.3-2.4
			c0.2-0.7,0.3-1.3,0.2-2C61.6,57.5,61.1,57.6,61.1,58L61.1,58z"/>
	</g>
</g>
<g>
	<g>
		<path d="M50.9,62.4c-0.1-0.4-0.1-0.8-0.1-1.2c-0.1-0.5-0.2-1-0.3-1.5c-0.1-0.8,0-1.6-0.2-2.4c-0.1-0.3-0.6-0.2-0.5,0.1
			c0.2,0.9,0.1,1.7,0.2,2.6c0.1,0.8,0.1,1.7,0.4,2.4C50.6,62.8,51.1,62.7,50.9,62.4L50.9,62.4z"/>
	</g>
</g>
<g>
	<g>
		<path d="M61,61.8c-0.1-1-0.2-2.9-1.2-3.5c-1.1-0.7-3,0.2-4.1,0.2c-1.4,0-3.1-1.1-4.2,0c-0.9,0.8-0.8,2.6-0.9,3.7
			c0,0.2,0.2,0.2,0.3,0c0-0.4,0.1-0.9,0.1-1.3c0.1-1.1,1-2.5,2.3-2.5c0.7,0,1.5,0.4,2.2,0.4c0.7,0,1.3-0.1,2-0.2
			c1.1-0.2,1.3-0.4,2.2,0.5c1.1,0.9,1.1,1.2,1.2,2.7C60.8,62,61,62,61,61.8L61,61.8z"/>
	</g>
</g>
<g>
	<g>
		<path d="M60.8,62.3c-0.2,1.7-0.4,3.6-0.9,5.2c-0.7,1.9-3.1,2.9-5,2.5c-0.4-0.1-0.9-0.2-1.3-0.4c-2.1-1-1.8-1.9-2.1-3.6
			c-0.2-1.2-0.4-2.4-0.7-3.7c0-0.2-0.3-0.1-0.2,0.1c0.4,1.6,0.6,3.3,0.9,4.9c0.1,0.6,0.2,1.2,0.6,1.7c0.8,0.9,2.8,1.4,3.9,1.4
			c4.5-0.1,4.7-4.8,5.1-8.1C61,62.2,60.8,62.2,60.8,62.3L60.8,62.3z"/>
	</g>
</g>
<g>
	<g>
		<path d="M58.5,69.6c1.3,2.5-1.4,5-2.9,6.8c-0.2,0.2,0.2,0.6,0.4,0.4c1.6-2,4.4-4.6,3-7.4C58.7,69,58.3,69.3,58.5,69.6L58.5,69.6z"
			/>
	</g>
</g>
<g>
	<g>
		<path d="M52.4,69.7c-0.1,1.5-0.5,2.7,0.7,3.8c1.9,1.7,2.9,3.7,3.6,6.1c0.1,0.3,0.6,0.2,0.5-0.1c-0.5-1.8-1.2-3.4-2.3-4.9
			c-0.3-0.4-0.7-0.8-1.1-1.2c-1-1.2-1.1-2.3-0.9-3.7C52.9,69.4,52.4,69.4,52.4,69.7L52.4,69.7z"/>
	</g>
</g>
<g>
	<g>
		<path d="M59.1,69.2c0.4,0.4,3.3,4,1,3.5c-0.2,0-0.4,0.2-0.3,0.4c0.6,1.2-0.4,1.5-1.3,2.1c-0.8,0.5-1.6,1.1-2.4,1.6
			c-0.3,0.2,0,0.6,0.3,0.4c0.7-0.5,1.5-1,2.2-1.5c0.5-0.3,1.6-0.8,1.9-1.3c0.4-0.6,0.1-1-0.2-1.6c-0.1,0.1-0.2,0.2-0.3,0.4
			c0.6,0.1,1.2,0.3,1.8,0.2c0.1,0,0.2-0.1,0.2-0.2c0-1.5-1.5-3.2-2.5-4.2C59.2,68.6,58.9,69,59.1,69.2L59.1,69.2z"/>
	</g>
</g>
<g>
	<g>
		<path d="M51.8,68.9c-0.8,0.8-2.9,3.4-1.9,4.6c0.1,0.1,0.2,0.1,0.2,0.1c0.4-0.1,1.1-0.4,1.5-0.4c-0.1-0.1-0.1-0.3-0.2-0.4
			c-0.5,0.6-0.7,0.8-0.4,1.4c0.4,0.6,1.9,1.2,2.4,1.6c0.9,0.7,1.8,1.5,2.6,2.3c0.2,0.2,0.6-0.1,0.4-0.4c-0.8-0.8-1.7-1.6-2.6-2.3
			c-0.5-0.4-2.8-1.4-2.1-2.3c0.1-0.1,0.1-0.5-0.2-0.4c-0.6,0.1-1.1,0.4-1.3-0.3c-0.2-0.8,1.4-2.7,1.9-3.1C52.4,69,52,68.7,51.8,68.9
			L51.8,68.9z"/>
	</g>
</g>
<path class="st0" d="M61.1,57.1c9.1,4.4,10.4,17.5,3.4,24.3c-3.9,3.8-9.8,4.4-14.5,1.8c-4.4-2.4-7.2-7-7.4-12
	c-0.2-5.6,2.6-11.4,7.6-14"/>
<g>
	<g>
		<path d="M60.8,71c2.6,0.8,5.6,2.6,6.8,5.1c0.1,0.3,0.6,0,0.4-0.3c-1.3-2.6-4.4-4.5-7.1-5.3C60.6,70.5,60.5,70.9,60.8,71L60.8,71z"
			/>
	</g>
</g>
<g>
	<g>
		<path d="M50.4,70.6c-2.6,1-5.3,1.9-7.2,4c-0.2,0.2,0.1,0.6,0.4,0.4c1.9-2.1,4.5-2.9,7-3.9C50.9,71,50.7,70.5,50.4,70.6L50.4,70.6z
			"/>
	</g>
</g>
<g>
	<g>
		<path d="M48.9,71.6c-0.3,2.3,0.1,4.5,1.2,6.6c0.2,0.3,0.6,0,0.4-0.3c-1.1-2-1.5-4.1-1.2-6.3C49.4,71.3,48.9,71.3,48.9,71.6
			L48.9,71.6z"/>
	</g>
</g>
<g>
	<g>
		<path d="M61.8,71.5c0.5,1.9-0.3,4.2-1.2,5.9c-0.1,0.3,0.3,0.5,0.4,0.3c1-1.8,1.8-4.2,1.2-6.3C62.2,71.1,61.7,71.2,61.8,71.5
			L61.8,71.5z"/>
	</g>
</g>
<g>
	<g>
		<path d="M58.9,78.5c0.7-0.3,1.6-0.6,2.3-0.3c0.6,0.3,1.1,0.9,1.2,1.6c0,0.2,0.4,0.2,0.5,0c0.2-0.8-1.1-1.9-1.7-2.2
			c-0.4-0.2-0.8-0.1-1.3,0c-0.5,0.1-1,0.2-1.4,0.6c-0.2,0.1,0,0.4,0.2,0.4c0.6,0,1.2-0.4,1.8-0.3c0.9,0,1.5,0.7,1.7,1.5
			c0.1,0.3,0.6,0.2,0.5-0.1c-0.2-0.7-0.8-1.5-1.5-1.8c-0.3-0.1-0.6-0.1-0.9-0.1c-0.5,0.1-1.1,0.3-1.6,0.3
			C58.8,78.2,58.9,78.3,58.9,78.5c0.6-0.5,1.8-0.7,2.3-0.4c0.3,0.2,1.3,1.1,1.2,1.5c0.2,0,0.3,0,0.5,0c-0.1-0.8-0.9-1.6-1.6-1.9
			c-0.8-0.3-1.9,0.1-2.7,0.4C58.3,78.2,58.6,78.6,58.9,78.5L58.9,78.5z"/>
	</g>
</g>
<g>
	<g>
		<path d="M58.4,78.3c-0.5,0.9-1.1,1.3-1.1,2.4c-0.1,1,0.2,2,0.6,2.9c0.1,0.3,0.6,0,0.4-0.3c-0.4-0.8-0.6-1.7-0.5-2.6
			c0.1-0.9,0.6-1.4,1.1-2.1C59,78.3,58.6,78,58.4,78.3L58.4,78.3z"/>
	</g>
</g>
<g>
	<g>
		<path d="M62.3,80c0.4,1.1-0.2,2.3-0.8,3.1c-0.2,0.3,0.2,0.5,0.4,0.3c0.7-1,1.4-2.3,0.9-3.5C62.7,79.6,62.2,79.7,62.3,80L62.3,80z"
			/>
	</g>
</g>
<ellipse class="st0" cx="51" cy="79.5" rx="1.7" ry="1.5"/>
<ellipse class="st0" cx="58.5" cy="84" rx="0.7" ry="0.4"/>
<path class="st1" d="M36.7,79.8c0,0.6-0.3,2,0.1,2.5"/>
<path class="st1" d="M36.7,68.8c0,0.7,0,1.5,0,2.2"/>
<path class="st1" d="M36.7,91.7c-0.5,3.4-0.2,6.5-0.2,10c0.3,1.9,1.9,3.4,3.8,3.8c10.7,0.3,21,1.3,32-0.6c0.6,0,1.6-0.6,1.9-1.3
	c0.6-23.8,0.9-47.6-0.3-71.4c0-0.9-1.6-1.9-2.8-1.9c-2.5,0-5,0-7.5,0.3c-7.8,0.3-15.7-0.3-23.5-0.3c-1.9,0-3.1,1.9-3.4,3.8
	c-0.3,8.5,0,17.2,0.1,25.8"/>
<path class="st1" d="M36.7,68.8c0,0.7,0,1.5,0,2.2"/>
<path class="st1" d="M36.7,91.7c-0.5,3.4-0.2,6.5-0.2,10c0.3,1.9,1.9,3.4,3.8,3.8c10.7,0.3,21,1.3,32-0.6c0.6,0,1.6-0.6,1.9-1.3
	c0.6-23.8,0.9-47.6-0.3-71.4c0-0.9-1.6-1.9-2.8-1.9c-2.5,0-5,0-7.5,0.3c-7.8,0.3-15.7-0.3-23.5-0.3c-1.9,0-3.1,1.9-3.4,3.8
	c-0.3,8.5,0,17.2,0.1,25.8"/>
<path class="st1" d="M38.1,90.7"/>
<path class="st1" d="M37.9,85.5"/>
<path class="st1" d="M39.1,70.1c0,1,0,2,0.1,2.9"/>
<path class="st1" d="M39.9,92.4c0.5,0.4,0.8,1.1,1.4,1.4c6.6,0.9,12.8,0.6,19.1,0.3c3.4,0,7.2,0.6,10.3-0.9c2.5-3.1,0.9-7.5,1.9-11
	c0-8.1,0-16,0-24.1c0-4.4,0-8.5,0-12.8c0-2.5-2.2-4.4-4.7-4.4c-9.1-0.3-18.2-0.9-27.3,1.6c-1.3,0.3-1.6,1.6-1.9,2.5
	c-0.9,6.3,0.6,11.9,0.4,17.7"/>
<path class="st1" d="M39.2,81.4c0.1,1,0.1,2,0,3"/>
<path class="st1" d="M40.4,77.5"/>
<path class="st1" d="M39.5,73.7"/>
<circle class="st2" cx="55.7" cy="100.3" r="3.6"/>
<g>
	<path class="st3" d="M47.8,37c0-1,2.6-1.8,5.7-1.8h4.4c3.1,0,5.7,0.8,5.7,1.8s-2.6,1.8-5.7,1.8h-4.4C50.4,38.8,47.8,38,47.8,37z"/>
</g>
<g>
	<g>
		<path d="M75,67.6c1.1-1,4.2-3.2,5.3-1.2c0.6,1.1,0.1,3.7,0,5c-0.2,1.6-0.9,2.9-1.1,4.5c-0.2,1.3-0.1,2.6,0,3.9
			c0.4,6.3,2.1,12.3,1.5,18.6c-0.1,0.6,0.9,0.6,1,0c0.4-4.3-0.1-8.1-0.9-12.2c-0.4-2.2-0.5-4.6-0.6-6.9c-0.1-2.3,0.3-4,0.9-6.2
			c0.4-1.8,1.5-7.1-0.5-8.3c-1.8-1.1-4.9,0.9-6.2,2.1C73.9,67.3,74.6,68,75,67.6L75,67.6z"/>
	</g>
</g>
<g>
	<g>
		<path d="M80.7,98.5c0.2,3.2-1.2,5.6-3.7,7.5c-1.3,0.9-1.5,1.9-1.8,3.5c-1,5,0,10.5,0.3,15.6c0,0.6,1,0.6,1,0
			c-0.2-2.7-0.4-5.4-0.5-8.2c-0.2-2.7-0.6-6.5,0.6-9c0.8-1.6,2.9-2.5,3.8-4.1c1-1.7,1.4-3.5,1.3-5.4C81.7,97.9,80.7,97.9,80.7,98.5
			L80.7,98.5z"/>
	</g>
</g>
<g>
	<g>
		<path d="M42.3,106.1c2.3,2.7,4.5,5.9,8,7.2c0.6,0.2,0.9-0.7,0.3-1c-3.2-1.2-5.4-4.4-7.5-6.9C42.6,104.9,41.9,105.6,42.3,106.1
			L42.3,106.1z"/>
	</g>
</g>
<g>
	<g>
		<path d="M50.1,113.3c2.6,2.6-0.3,7.7,0.8,10.8c0.7,2.1,2.8,2,4.6,2c3.9,0,7.7,0,11.6,0c1.8,0,3.5,0,5.3,0c1.3,0,2.6,0.2,3.8-0.4
			c0.6-0.3,0.1-1.2-0.5-0.9c-1.2,0.6-3.4,0.2-4.7,0.2c-1.6,0-3.2,0-4.8,0c-3.2,0-6.4,0-9.7,0c-2.1,0-4.2-0.1-4.7-2.6
			c-0.3-1.4,0.1-3.1,0.2-4.4c0.1-2,0.3-4-1.1-5.5C50.3,112.1,49.6,112.8,50.1,113.3L50.1,113.3z"/>
	</g>
</g>
<path class="st1" d="M41.9,68.9L41.9,68.9c-1.2,1.4-3.3,1.6-4.7,0.3l-5.9-5.1c-1.4-1.2-1.6-3.3-0.3-4.7l0,0c1.2-1.4,3.3-1.6,4.7-0.3
	c1,0.8,5.9,5.1,5.9,5.1C42.9,65.3,43.1,67.5,41.9,68.9z"/>
<path class="st1" d="M38.4,46.5"/>
<path class="st1" d="M38.1,49.4"/>
<path class="st1" d="M37.6,54.4"/>
<path class="st1" d="M37.7,53.9"/>
<path class="st1" d="M37.2,54.3"/>
<path class="st1" d="M37.1,53.8"/>
<path class="st1" d="M36.4,45.7c-1-0.1-2,0.3-2.7,1.1c-1.1,1.4-1,3.5,0.3,4.7l2.6,2.3c0-0.1,0-0.2,0.1-0.3"/>
<path class="st1" d="M37,46.6"/>
<path class="st1" d="M42,75.5l-5.8-5.1c-1.4-1.2-3.5-1.1-4.8,0.3c-1.2,1.4-1.1,3.5,0.3,4.8l5.8,5.1c1.4,1.2,3.5,1.1,4.8-0.3
	C43.6,78.9,43.4,76.7,42,75.5z M38.7,73.1 M38.8,73.4 M39.1,73.6 M39.4,73.4"/>
<path class="st1" d="M41.8,91.3L41.8,91.3c-1.3,1.5-3.4,1.7-4.8,0.4l-0.5-0.4l-5.4-4.7c-1.4-1.2-1.5-3.4-0.3-4.9l0,0
	c1.3-1.5,3.4-1.7,4.8-0.4l1,0.8l4.9,4.3C43,87.7,43.1,89.8,41.8,91.3z"/>
</svg>
