<?xml version="1.0" encoding="utf-8"?>
<!-- Generator: Adobe Illustrator 21.0.0, SVG Export Plug-In . SVG Version: 6.00 Build 0)  -->
<svg version="1.1" id="Слой_1" xmlns="http://www.w3.org/2000/svg" xmlns:xlink="http://www.w3.org/1999/xlink" x="0px" y="0px"
	 viewBox="0 0 109.1 148.1" style="enable-background:new 0 0 109.1 148.1;" xml:space="preserve">
<style type="text/css">
	.st0{fill:none;stroke:#000000;stroke-width:0.5;stroke-miterlimit:10;}
</style>
<g>
	<g>
		<path d="M52.4,47.5c1.3,4.6,2.8,9.2,4.3,13.7c0.1,0.4,0.7,0.5,0.9,0.1c4.3-7,11.2-14.4,20.3-13c8.1,1.3,12.6,9.7,12.5,17.3
			c-0.2,8.5-4.8,18.3-11.7,23.5c-6.9,5.2-14.1,8.9-23,8.8c-4.8-0.1-9.5-1-14-2.5c-4.6-1.5-9-3.6-11.8-7.7c-0.2-0.3-0.6-0.3-0.9,0
			c-2,2.9-4.1,6.3-4.3,9.9c0,0.8,0.3,1.7,0.2,2.5c0.5,1,0.2,1.8-1,2.5c-0.6,0.2-1.2,0.4-1.7,0.7c-0.7,0.3-1.8,1-2.4,0.6
			c-0.9-0.6-1-3.5-1-4.4c-0.3-4.6,0.7-9.6,3.4-13.4c2.6-3.6,6.4-6.2,10.3-8.2c4-2,8.3-3.5,12.7-4.4c1.4-0.3,6.4,0.2,6.3-2.4
			c-0.1-1.4-1.8-2.8-2.4-4c-1.2-2.5-1.4-5.5-1.7-8.2c-0.2-2.2-0.4-4.5-0.5-6.8c-0.1-1.6-0.5-3.4,1.1-4.5
			C49,47.2,51.1,47.5,52.4,47.5c0.6-0.1,0.6-1.1-0.1-1.1c-2,0-5.9-0.2-6.5,2.3c-0.5,1.9,0,4.6,0.2,6.6c0.1,2,0.3,3.9,0.6,5.9
			c0.3,1.9,0.5,3.9,1.2,5.8c0.3,0.9,2.9,4.3,1.9,5.1c-0.3,0.3-1.9,0.2-2.3,0.3c-1,0.1-2,0.3-3,0.5c-2,0.4-4,0.9-5.9,1.6
			c-6.4,2.2-13.3,5.6-17.2,11.3c-3.5,5-5.4,14-2,19.5c0.1,0.2,0.4,0.3,0.6,0.2c1.2-0.4,2.3-0.9,3.5-1.3c0.6-0.2,1.8-0.5,2.3-0.9
			c0.6-0.5,0.7-0.8,0.7-1.6c-0.1-1.3-0.7-2.4-0.6-3.7c0-1,0.3-2,0.6-3c0.8-2.3,2.1-4.4,3.6-6.4c-0.3,0-0.6,0-0.9,0
			c4.8,7.2,15.1,9.7,23.2,10.5c4.8,0.5,9.6,0.1,14.2-1.4c4.6-1.6,8.9-4.5,12.8-7.4c7.2-5.3,12-15.4,12.2-24.3
			c0.2-7.4-3.8-15.4-11.2-17.8c-10.1-3.4-18.7,5.2-23.4,13c0.3,0,0.6,0.1,0.9,0.1c-1.6-4.5-3-9.1-4.3-13.7
			C53.2,46.6,52.2,46.9,52.4,47.5L52.4,47.5z"/>
	</g>
</g>
<circle class="st0" cx="42.7" cy="91.1" r="1.2"/>
<circle class="st0" cx="54.6" cy="92.3" r="2.2"/>
<circle class="st0" cx="73.3" cy="87.3" r="1.3"/>
<circle class="st0" cx="48" cy="85.7" r="3.1"/>
<circle class="st0" cx="43.9" cy="78.5" r="1.2"/>
<circle class="st0" cx="70.8" cy="76.9" r="2.8"/>
<circle class="st0" cx="62" cy="84.6" r="0.9"/>
<circle class="st0" cx="81.4" cy="74.7" r="2.2"/>
<circle class="st0" cx="77.2" cy="83.4" r="0.8"/>
<circle class="st0" cx="63.4" cy="91.1" r="2.4"/>
<circle class="st0" cx="63.4" cy="76.9" r="1.8"/>
<circle class="st0" cx="55.4" cy="76.9" r="1.1"/>
<circle class="st0" cx="39.4" cy="85.7" r="1.5"/>
<g>
	<g>
		<path d="M50.6,70.6c3.8-1.1,7.6-1.6,11.6-1.4c2.8,0.1,5.5,0.7,8.2,0.7c6.4,0.1,12.7-2.4,19.1-0.7c0.3,0.1,1.1-0.2,0.5-0.3
			c-6.6-1.8-13.1,0.7-19.7,0.6c-3.5,0-7-0.8-10.6-0.7c-3.3,0.1-6.6,0.6-9.8,1.5C49.5,70.5,50.4,70.7,50.6,70.6L50.6,70.6z"/>
	</g>
</g>
</svg>
