<?xml version="1.0" encoding="utf-8"?>
<!-- Generator: Adobe Illustrator 21.0.0, SVG Export Plug-In . SVG Version: 6.00 Build 0)  -->
<svg version="1.1" id="Слой_1" xmlns="http://www.w3.org/2000/svg" xmlns:xlink="http://www.w3.org/1999/xlink" x="0px" y="0px"
	 viewBox="0 0 109.1 148.1" style="enable-background:new 0 0 109.1 148.1;" xml:space="preserve">
<g>
	<g>
		<path d="M85,40.5c-3.9,2.1-8.3,2.8-12.6,1.8c-3.9-0.9-7-3.4-10.5-4.9c-5.7-2.5-14.1-3.4-18,2.7c-1.8,2.8-1.8,6.2-1.5,9.4
			c0.2,2.4,0.3,4.6-0.6,6.9c-0.7,1.8-1.8,3.5-2.6,5.4c-1.4,3.4-2,7.1-1.7,10.7c0.1,1.9,0.7,3.8,0.8,5.7c0.1,2.9-1.6,5.2-4.5,5.8
			c-0.6,0.1-0.4,1.1,0.3,1c2.6-0.5,4.8-2.5,5.2-5.1c0.3-1.5-0.2-3-0.4-4.4c-0.4-2.2-0.5-4.5-0.3-6.7c0.4-4.5,2.6-7.9,4.2-11.9
			c1.5-3.7,0.3-7.5,0.6-11.3c0.5-5.7,4.8-9.1,10.4-9c4.5,0.1,8.5,2.1,12.3,4.2c6.2,3.5,13.1,4.2,19.6,0.7C86.1,41,85.5,40.2,85,40.5
			L85,40.5z"/>
	</g>
</g>
<g>
	<g>
		<path d="M86.5,57.4c-4.1,1.5-8.4,2.7-12.9,2.4c-2.4-0.1-4.8-0.6-7-1.6c-1.4-0.6-2.6-1.5-4.1-1.9c-0.4-0.1-0.8,0.4-0.6,0.7
			c1,1.8,1.4,3.8,0.9,5.8c-0.2,1.1-0.8,2.1-0.6,3.3c0.1,0.9,0.7,1.6,1.1,2.4c1.1,1.8,1.5,3.6,1.7,5.7c0.3,4.3-0.3,9.7,4.4,11.9
			c0.6,0.3,1.1-0.6,0.5-0.9c-5.8-2.8-2.7-10.6-4.7-15.4c-0.4-0.9-1-1.6-1.4-2.4c-0.8-1.8-0.1-3.3,0.1-5.1c0.3-2-0.2-4-1.2-5.8
			c-0.2,0.2-0.4,0.5-0.6,0.7c1.9,0.6,3.6,1.8,5.5,2.5c1.9,0.7,3.9,1,5.8,1.1c4.5,0.2,8.9-1,13.1-2.5C87.3,58.1,87.1,57.1,86.5,57.4
			L86.5,57.4z"/>
	</g>
</g>
<g>
	<g>
		<path d="M47.3,78.3c-4.4,0.4-6.8,4.6-6.6,8.7c0.1,2.6,1,5.1,2.1,7.4c1.5,3.4,4.4,8.4,2.4,12.1c-0.1,0.1,0,0.3,0.1,0.3
			c0.9,0.5,0.5,3,0.5,3.9c0,2.1-0.2,3.9-2.1,5.2c-3.1,2.2-8.5,1.2-10.5-2c-0.2-0.3-0.6,0-0.4,0.3c2,3.2,7,4.4,10.3,2.8
			c4-2,3.2-6.5,2.9-10.2c-0.1-1.2,0.4-2.5,0.3-3.8c-0.3-2.3-1.2-4.4-2.1-6.5c-1.4-3.1-3.1-6.4-3-9.9c0-3.7,2.1-7.5,6.1-7.8
			C47.6,78.8,47.6,78.3,47.3,78.3L47.3,78.3z"/>
	</g>
</g>
<g>
	<g>
		<path d="M55.4,66.7c2,0.6,4.1,1.2,5.5,2.9c1.5,1.8,1.5,4,1.3,6.2c-0.1,1.7-0.2,3.5-0.5,5.2c-0.5,3.4-2.5,4.5-5.5,5.5
			c-0.2,0.1-0.3,0.3-0.1,0.4c1.2,1.2,3,0.7,4.2,2c2.1,2.2,1.1,5.4-0.1,7.7c-0.8,1.6-1.9,3.2-2.4,5c-0.2,0.6-0.2,5.3-0.4,5.4
			c-0.1,0-0.2,0.2-0.2,0.3c0.9,3.5-0.3,7.8,3.7,9.5c3.4,1.5,6.8-0.4,9.2-2.8c0.2-0.2-0.1-0.6-0.4-0.4c-1.7,1.6-3.8,3.1-6.2,3.2
			c-3.4,0.1-5.2-2.3-5.5-5.5c-0.1-1.3-0.3-2.8-0.2-4c0-0.3,0.3-0.7,0.3-1.1c0.1-0.9-0.4-1.9-0.3-2.8c0.1-1.4,0.6-2.6,1.3-3.9
			c0.7-1.4,1.5-2.7,2.1-4.1c0.8-2,1-4.4-0.3-6.3c-0.7-1-1.5-1.2-2.6-1.6c-0.2,0-0.4-0.1-0.6-0.1c-1.1-0.4-1.2-0.7-0.2-0.8
			c0.3-0.3,1-0.4,1.4-0.6c2.8-1.5,3.1-3.7,3.4-6.6c0.2-2.8,0.9-6.1-0.3-8.7c-1.2-2.6-4-3.5-6.6-4.3C55.3,66.2,55.1,66.7,55.4,66.7
			L55.4,66.7z"/>
	</g>
</g>
<g>
	<g>
		<path d="M44.2,116.3c3.2-1.3,6.2-2.5,9.7-1.9c2.8,0.5,5.4,2.6,8.3,2.7c0.3,0,0.3-0.5,0-0.5c-3.3-0.1-6.1-2.8-9.5-2.9
			c-3.2-0.1-5.7,0.9-8.6,2C43.7,116,43.9,116.4,44.2,116.3L44.2,116.3z"/>
	</g>
</g>
<g>
	<g>
		<path d="M85.4,44.4c-2.5,1.4-5.2,2.4-8.1,2.2c-1.4-0.1-2.7-0.2-4.1-0.4c-0.3,0-0.9-0.1-1.3-0.1c-1-0.2-1.4-0.6-2.2-1
			c-0.8-0.4-1.7-0.6-2.5-1.1c-5.1-2.9-12.5-7.7-18.3-3.6c-2.6,1.9-3.3,5.2-3.4,8.2c-0.1,2.2,0.1,4.4-0.4,6.6c-0.4,2.2-1.6,4-2.4,6
			c-1.3,3.2-2.7,7.5-1.5,11c0.4,1.1,1,2.2,1.9,3.1c0.8,0.8,4.1,2.1,4.1,3.2c0,0.3,0.5,0.3,0.5,0c0-0.8-0.3-1-0.9-1.4
			c-1.8-1.2-3.4-1.7-4.5-3.8c-2.1-3.9-0.1-9.6,1.6-13.4c1.5-3.1,2.1-5.7,2.1-9.2c0.1-4.5,0.6-9.8,5.9-11c4.2-1,8.1,0.8,11.7,2.8
			c1.5,0.8,2.8,1.8,4.2,2.6c0.1,0.1,0.4,0.2,0.5,0.3c0.7-0.1,1.3,0.2,1.8,0.9c0,0,0.1,0.1,0.1,0.1c1,0.5,2,0.3,3.1,0.5
			c1.5,0.4,2.1,0.1,3.8,0.2c3,0.2,5.8-0.8,8.4-2.2C85.9,44.7,85.6,44.3,85.4,44.4L85.4,44.4z"/>
	</g>
</g>
<g>
	<g>
		<path d="M86.5,54.8c-1,0.1-1.7,0.4-2.6,0.9c-1.5,0.8-3,1-4.6,1.5c-0.8,0.2-1.5,0.7-2.3,0.8c-1.3,0.3-1.9-0.1-3-0.2
			c-1.3-0.1-2.8-0.1-3.9-0.6c-0.9-0.4-1.7-1.1-2.6-1.5c-1.5-0.5-3.2-0.5-4.5-1.5c-1.2-0.9-2.9-2.8-4.3-1.1c-1.2,1.4-0.1,3.5,0.5,4.9
			c0.4,0.8,1,2,0.9,2.9c-0.2,1.6-1.5,2.6-2.8,3.3c-0.7,0.4-2.5,0.6-2.9,1.5c-0.5,1.2,0.8,1.6,1.7,1.6c0.5,0,0.5-0.8,0-0.8
			c-0.9-0.3-1.1-0.6-0.4-0.8c0.3-0.1,0.5-0.2,0.8-0.3c0.6-0.3,1.3-0.5,1.9-0.9c0.6-0.4,1.2-0.9,1.7-1.5c1-1.4,0.7-2.9,0.1-4.4
			c-0.4-0.9-2.8-6.1,1.1-4.6c1,0.4,1.7,1.4,2.6,1.9c0.1,0,3.6,1.1,3.6,1.1c0,0.2,0.2,0.3,0.4,0.3c0.1,0,1.1,0.6,1.6,0.8
			c0.6,0.2,1.9,0.7,2.6,0.8c0.4,0.1,0.7-0.1,1.1-0.1c1.1,0,2,0.3,3.1,0.2c1.5-0.1,3.3-1,4.8-1.3c1.9-0.4,3.5-1.9,5.4-2
			C87,55.5,87,54.7,86.5,54.8L86.5,54.8z"/>
	</g>
</g>
<g>
	<g>
		<path d="M69.8,86.1c0.6,0.7,0.6,2.9,0.6,3.9c0,0.9-0.2,1.2-0.2,1.9c0,1,0,2-0.1,2.9c-0.1,1.2,0.4,2.2,0.2,3.4
			c-0.2,1-0.6,1.9-0.7,2.9c-0.1,1.3,0.2,2.7,0,4c-0.2,2.8,1.2,5.9,0.1,8.5c-0.2,0.6,0.7,0.9,1,0.3c1.1-2.7-0.2-5.5-0.1-8.3
			c0.1-2.2-0.1-4.3,0.6-6.3c0.3-0.8,0.4-1.2,0.3-2.1c-0.4-2.2-0.1-4.4,0.1-6.6c0.1-1.8,0-3.8-1.1-5.3C70.1,84.9,69.4,85.6,69.8,86.1
			L69.8,86.1z"/>
	</g>
</g>
<g>
	<g>
		<path d="M33.2,84.1c-1.4,1.4-1.8,3.2-1.8,5.2c0,1.7,0.4,3.4,0.3,5.2c-0.1,1.4-0.4,2.7-0.3,4.2c0.2,1.4,0.4,1.9-0.1,3.3
			c-0.4,1.1-0.5,2.1-0.4,3.3c0.1,1,0.4,2,0.4,3c0,0.5-0.1,1-0.1,1.5c0.2,1.6,1.3,2.8,1.2,4.4c0,0.6,1,0.6,1,0c0-0.8-0.1-1.4-0.4-2.2
			c-0.6-1.6-0.6-2.8-0.7-4.5c-0.1-1.5-0.6-2.9-0.3-4.4c0.2-0.9,0.8-1.7,0.8-2.6c0-1.1-0.5-2.2-0.5-3.3c0-1.1,0.4-2.2,0.4-3.4
			c0-3-1.3-6.4,1.2-8.9C34.3,84.3,33.6,83.6,33.2,84.1L33.2,84.1z"/>
	</g>
</g>
<g>
	<g>
		<path d="M84.8,41.1c1.1,1.6,0,3.4,0.1,5.1c0,0.3,0.3,0.4,0.3,0.7c0.4,1.8-0.1,1-0.4,2.3c-0.2,0.8,0.1,1.1,0.5,1.9
			c0.6,1.5,2,5.1,1,6.6c-0.4,0.5,0.5,1,0.9,0.5c0.8-1.2,0.5-2.4,0.2-3.8c-0.3-1.3-0.7-2.6-1.1-3.9c-0.3-1-0.2-1.1,0.1-2.1
			c0.1-0.4,0.3-0.6,0.2-1c0-0.2-0.2-0.4-0.3-0.6c-0.2-0.8-0.3-1.4-0.2-2.3c0.3-1.6,0.4-2.4-0.6-3.9C85.3,40.1,84.4,40.6,84.8,41.1
			L84.8,41.1z"/>
	</g>
</g>
</svg>
