<?xml version="1.0" encoding="utf-8"?>
<!-- Generator: Adobe Illustrator 21.0.0, SVG Export Plug-In . SVG Version: 6.00 Build 0)  -->
<svg version="1.1" id="Слой_1" xmlns="http://www.w3.org/2000/svg" xmlns:xlink="http://www.w3.org/1999/xlink" x="0px" y="0px"
	 viewBox="0 0 109.1 148.1" style="enable-background:new 0 0 109.1 148.1;" xml:space="preserve">
<style type="text/css">
	.st0{fill:none;stroke:#000000;stroke-miterlimit:10;}
</style>
<g>
	<g>
		<path d="M24,66.2c0.3-0.8,0.5-1.8,0.1-2.6c-0.7-1.3-3.4-1.1-3.6-2.7c0-0.1-0.1-0.1-0.1-0.1c-0.4-1-0.8-1.9-1.2-2.9
			c0-0.1,0-0.1-0.1-0.1c-1.7-1.3-0.9-4.8-1.1-6.7c-0.2-1.6,0-2.9,0.5-4.4c0.3-0.9,0.4-2.2,1.3-2.9c1.6-1.3,2.7-0.9,4.4-0.3
			c2.7,0.9,5.4,1.5,8.2,1.6c2.4,0.1,4.7-0.1,7-0.8c1-0.3,2-0.7,3-1.2c1.2-0.6,2.6-1.9,4-1.9c4,0.2,2.8,4.7,3,7.3
			c0.1,1.2,0.4,1.6,0.3,2.8c-0.1,1.1-0.2,4.9-0.9,5.4l-0.1,0.1c0.2,0.5-1.1,4.6-1.4,4.7c-0.1,0-0.1,0.1-0.1,0.2
			c0.2,1-1.4,2.9-2.3,3.3c-1,0.5-2,0.5-3,0.7c-0.7,0.1-2.4,0.8-2.9,0.3c0-0.1-0.1,0-0.2,0c-0.9,0.2-1.9,0.4-2.8,0.5
			c-0.1,0-0.1,0-0.2,0.1c-0.2,0.7-0.3,1.2-0.4,1.8c0,0.2,0,0.4,0,0.6c-0.3,1.1-0.9,2-1.8,2.6c-0.2,0.4-0.6,2.6-1.3,2.2
			c-0.1-0.1-0.3,0.1-0.1,0.2c0.9,0.4,0.9,0.1,1.4-0.6c0.1-0.1,0-0.5,0-0.6c1.4-4.2,0,0,1.2-1.7c0.4-0.5,0.7-0.8,0.8-1.5
			c0.3-1.2-0.3-2.2,0.9-2.8c-0.5,0.2,1.8-0.2,1.3-0.1c0.8-0.2,1.4-0.2,2.2-0.3c1.9-0.1,4.9-0.9,6.4-2.3c0.9-0.8,0.9-1.6,1.3-2.6
			c0.5-1.1,0.8-2.3,1.2-3.6c0.3-0.9,0.8-1.8,0.9-2.7c0.2-1.2-0.2-2.5-0.1-3.7c0.1-1,0.3-1.8,0.1-2.8c-0.3-1.8,0.1-4-0.4-5.7
			c-0.4-1.3-1.5-1.9-2.8-2.2c-1.9-0.5-3.2,1.2-4.8,2c-2.8,1.3-6,1.9-9,1.8c-3.6-0.1-6.7-1.2-10.1-2.1c-3.7-0.9-4.8,2.6-5.4,5.5
			c-0.3,1.4,0,2.8-0.1,4.2c-0.1,1.8,0.3,3.5,1,5.1c0.6,1.4,0.2,2.2,1.3,3.4c1.4,1.5,4.9,2.7,4.1,5.1C23.7,66.3,24,66.4,24,66.2
			L24,66.2z"/>
	</g>
</g>
<g>
	<g>
		<path d="M23.7,66.3c0.8,1.4,1.7-0.4,1.8-1.3c0.1-1.2-0.8-2-0.6-3.1c0.2-1,0.8-1.5,0.4-2.6c-0.3-0.7-0.7-1.1-0.9-1.9
			c-0.2-0.7-0.3-1.5-0.4-2.2c-0.1-1.1-0.4-2.2-0.5-3.4c0-0.5-0.4-2-0.3-2.4c0.5-1.7,1.9-0.1,2.9-0.1c0.3,0,0.5-0.2,0.7-0.2
			c1,0,1.4,0.4,2.3,0.6c2,0.4,4,0.3,5.9,0.5c1.1,0.1,2.1-0.2,3.2-0.4c0.9-0.1,1.4-0.6,2.3-0.8c0.8-0.2,1.5,0.2,2.3-0.2
			c0.4-0.2,0.9-0.9,1.2-1c1-0.2,1,1.4,1,2.5c0,1.5-0.5,2.8-0.4,4.3c0.1,1.7-1,5.8-2.5,6.6c-1.7,1-4.8-0.1-6.7,0.2
			c-1.2,0.2-2.3,0.6-3.2,1.5c-2.1,2.2-2.7,6.1-0.5,8.5c0.1,0.1,0.3-0.1,0.2-0.2c-3.5-3.8,0.1-9.5,4.6-9.7c1.9-0.1,5.3,0.9,6.9-0.7
			c0.5-0.5,0.6-1.2,0.7-1.9c0.3-1.3,0.9-2.4,1.1-3.7c0.2-1.2-0.4-0.6-0.2-2.6c0.1-0.5,0.3-1,0.4-1.5c0.2-1.5-0.1-2.9-0.7-4.3
			c0-0.1-0.2-0.1-0.2,0c-0.6,1.5-1.9,2-3.8,1.5c-0.1,0-0.1,0-0.2,0c-0.9,1.4-5.2,0.9-6.2,1c-0.1,0-0.3,0.1-0.4,0.1
			c-1.6,0.3-1.5-0.1-2.9-0.4c-1.7,0-2.5,0.3-3.7-0.6c0,0-0.1,0-0.2,0c-0.8,0.1-1.5,0.1-2.3,0.2c-0.3-0.3-0.7-0.6-1-0.9
			c-0.1,0-0.2-0.2-0.2-0.2c-0.1,0-0.2,0-0.3,0c-0.5,0.2-0.4,1-0.4,1.4c0.1,1.7,0,3.6,0.4,5.3c0.3,1.1,0.3,2.2,0.6,3.2
			c0.5,1.6,2.7,2.3,0.2,4.7c-0.1,0,0,0.1,0,0.2c1.5,1.5,1.4,2.8-0.3,3.8C23.8,66,23.6,66.2,23.7,66.3L23.7,66.3z"/>
	</g>
</g>
<g>
	<g>
		<path d="M31.7,71.4c0.4,0.8,0.5,1.7,0.4,2.7c0,0.2,0.2,0.2,0.2,0.1c0.2-1,0-2-0.4-2.9C31.8,71.1,31.6,71.2,31.7,71.4L31.7,71.4z"
			/>
	</g>
</g>
<g>
	<g>
		<path d="M29.1,77.3c0.1,2.4,0.3,4.8,0.6,7.3c0,0.6,1,0.5,1-0.1c-0.3-2.4-0.5-4.8-0.6-7.3C30.1,76.7,29.1,76.7,29.1,77.3L29.1,77.3
			z"/>
	</g>
</g>
<g>
	<g>
		<path d="M63.8,84.4c-5.7-2-11.7-3.3-17.6-4.6c-2.9-0.6-5.8-1.1-8.7-1.8c-2.5-0.5-5.4-1.6-8-1.5c-0.6,0-0.5,1,0.1,1
			c2.8-0.2,6,1.1,8.7,1.7c2.9,0.6,5.8,1.2,8.7,1.7c5.7,1.1,11.3,2.5,16.7,4.3C64.2,85.5,64.5,84.5,63.8,84.4L63.8,84.4z"/>
	</g>
</g>
<g>
	<g>
		<path d="M63.4,84.5c-11.2,1-22.2,0.5-33.4-0.1c-0.6-0.1-0.5,0.9,0.1,1c11.2,0.6,22.2,1.1,33.4,0.1C64.2,85.4,64.1,84.4,63.4,84.5
			L63.4,84.5z"/>
	</g>
</g>
<g>
	<g>
		<path d="M46.7,86.1c0.2,2.5,0.4,5.1,0.9,7.6c0.1,0.6,1.1,0.5,1-0.1c-0.4-2.5-0.7-5.1-0.9-7.6C47.7,85.3,46.7,85.4,46.7,86.1
			L46.7,86.1z"/>
	</g>
</g>
<g>
	<g>
		<path d="M37.9,85.9c0.9,5.8,0.2,11.7,2,17.4c0.2,0.6,1.1,0.3,1-0.4c-1.8-5.5-1.2-11.4-1.9-17.1C38.7,85.2,37.7,85.3,37.9,85.9
			L37.9,85.9z"/>
	</g>
</g>
<g>
	<g>
		<path d="M57.6,107c-5.5-1.6-11.4-2.5-16.9-4.1c-0.6-0.2-0.9,0.8-0.2,1c5.5,1.7,11.4,2.5,16.9,4.1C58,108.2,58.2,107.2,57.6,107
			L57.6,107z"/>
	</g>
</g>
<g>
	<g>
		<path d="M45.8,104.9c-2.8,1-5.7,2-8.4,3.3c-2.5,1.2-5,3.2-7.8,3.8c-1.6,0.3-3.8,0.1-4.8,1.7c-0.6,1,0.5,3,0.5,3s0.8,0.2,1.9,0.3
			c0-0.2,0.1-0.4,0.3-0.5c0,0,0,0,0,0c0,0,0-0.1,0-0.1c-1.3,0-1.5-1-0.7-3c0.7-0.1,1.4-0.3,2.2-0.3c1.6-0.3,2.9-0.8,4.2-1.5
			c4.2-2.4,8.3-4.2,12.9-5.8C46.7,105.6,46.3,104.7,45.8,104.9z"/>
	</g>
</g>
<g>
	<g>
		<path d="M87.2,112.6c-0.3-0.1-1.2,0-1.4-0.1c-0.1-0.1,0-0.7-0.2-0.8c-0.5-0.8-0.9-1.3-1.5-1.9c-1.8-1.5-4.1-2.2-6.2-3.1
			c-2.7-1-5.2-1.9-8.1-2.2c-0.6-0.1-0.8,1-0.2,1c4,0.4,8.2,1.9,11.8,3.7c1,0.5,2.6,1.3,3.2,2.5c0,0,0.2,1.1,0.4,1.3
			c0.7,0.8,1.6,0.4,2.5,0.7c1.3,0.1,0.9,0.9-1.3,2.6c-0.1,0-0.3,0-0.4,0c0.3,0.2,0.5,0.4,0.8,0.8c0.2,0,0.4-0.1,0.6-0.1
			c1.3-0.3,2.6-1.3,2.5-2.7C89.5,112.9,88.4,112.7,87.2,112.6z"/>
	</g>
</g>
<g>
	<g>
		<path d="M57.7,108c7.1-0.7,15.2-2.8,20.7-7.6c1.2-1.1,2.2-2.3,3.3-3.5c1.2-1.2,2-2.5,2.8-4.1c1.6-3.1,2.8-6.3,3-9.8
			c0.1-0.6-0.9-0.5-1,0.1c-0.2,3.6-1.5,6.9-3.2,10c-0.8,1.5-1.6,2.4-2.8,3.6c-1.2,1.3-2.1,2.6-3.6,3.6c-5.6,4-12.5,6-19.2,6.7
			C56.9,107.1,57,108.1,57.7,108L57.7,108z"/>
	</g>
</g>
<g>
	<g>
		<path d="M87.4,82.5c-0.9-3.4-1.3-6.9-2.3-10.4c-0.9-2.9-1.9-6.2-3.1-8.9c-0.2-0.6-1.2-0.2-1,0.4c1.3,2.8,2.3,6,3.1,8.9
			c1,3.4,1.4,6.9,2.3,10.4C86.5,83.5,87.5,83.2,87.4,82.5L87.4,82.5z"/>
	</g>
</g>
<g>
	<g>
		<path d="M81.3,62.8c-1.9-0.7-3.9-1.7-5.9-2.5c-2.1-0.9-4.2-1.6-6.3-2.4c-0.6-0.2-1.1,0.7-0.4,0.9c2.4,0.8,4.8,1.8,7.2,2.7
			c1.7,0.7,3.5,1.8,5.3,2.3C81.6,63.9,81.9,62.9,81.3,62.8L81.3,62.8z"/>
	</g>
</g>
<g>
	<g>
		<path d="M63,70.3c1.6,0.2,3.2,0.9,4.7,1.3c1.3,0.4,3.4,0.5,3.9,1.8c1,2.6,0.9,6.1,1.3,8.8c0,0.6,1,0.5,1-0.1
			c-0.2-2.2-0.5-4.3-0.8-6.5c-0.2-1-0.1-2.9-0.6-3.8c-0.5-0.8-2.2-0.8-2.9-0.9c-2.1-0.6-4.1-1.5-6.3-1.8
			C62.5,69.2,62.3,70.2,63,70.3L63,70.3z"/>
	</g>
</g>
<g>
	<g>
		<path d="M48,94.3c5.1,2.2,10.8,2.4,16,0.4c2.5-1,3.7-2.8,5.3-4.9c1.8-2.2,3.7-4.4,4.7-7c0.3-0.6-0.7-1.1-0.9-0.4
			c-1,2.3-2.5,4.2-4.1,6.1c-1.7,2.1-2.9,4.2-5.5,5.3c-4.8,2-10.4,1.7-15.2-0.3C47.8,93.1,47.3,94.1,48,94.3L48,94.3z"/>
	</g>
</g>
<g>
	<g>
		<path d="M54.3,39.7c-0.8,2.1-1.3,4.1-1.7,6.3c-0.1,0.3,0.1,0.7,0.5,0.6c0.4,0,3.4-0.6,3.6-0.5c0.2,0.2-1,3-1.2,3.3
			c-0.8,2.5-1.7,4.8-2.6,7.2c-0.9,2.1-2,4-2.9,6.1c-0.7,1.8-0.9,4.4-2.5,5.8c0.2,0.1,0.5,0.2,0.7,0.3l0-0.1c-0.2-0.6-1.2-0.2-1,0.4
			l0,0.1c0.1,0.3,0.5,0.5,0.7,0.3c1.9-1.7,2-4.3,3-6.5c1.4-3.2,3-6.3,4.2-9.6c0.5-1.3,0.9-2.7,1.3-4c0.3-0.7,1.2-2.6,1.1-3.3
			c-0.4-1.6-3.6-0.5-4.6-0.3c0.2,0.2,0.3,0.4,0.5,0.6c0.4-2.1,0.9-4.1,1.6-6C55.4,39.5,54.4,39.1,54.3,39.7L54.3,39.7z"/>
	</g>
</g>
<g>
	<g>
		<path d="M54.6,40.3c9.1,2.4,18.1,4.7,27.2,7c0.6,0.2,0.8-0.9,0.2-1c-9.1-2.3-18.1-4.6-27.2-7C54.2,39.1,54,40.1,54.6,40.3
			L54.6,40.3z"/>
	</g>
</g>
<g>
	<g>
		<path d="M81.5,46.5c-3.1,1.2-6.3,2.3-9.5,3.1c-0.6,0.1-0.3,1.1,0.4,1c3.3-0.8,6.4-1.9,9.5-3.1C82.4,47.2,82.1,46.3,81.5,46.5
			L81.5,46.5z"/>
	</g>
</g>
<g>
	<g>
		<path d="M47.5,69.7c4.4,0.5,9,2.4,13.3,3.6c0.6,0.2,0.9-0.8,0.2-1c-4.3-1.2-8.8-3.1-13.3-3.6C47.1,68.6,46.9,69.5,47.5,69.7
			L47.5,69.7z"/>
	</g>
</g>
<g>
	<g>
		<path d="M71.2,49.9c-0.7,2.2-1.7,4.1-2.6,6.2c-0.8,2-1.4,3.6-2.6,5.5c-1.3,1.8-1.9,4-2.9,5.9c-0.9,1.7-1.7,3.3-2.1,5.2
			c-0.2,0.6,0.9,0.8,1,0.2c0.4-2.3,1.6-4.3,2.7-6.4c0.4-1,0.9-2.1,1.3-3.1c0.5-1,1.3-1.9,1.9-2.8c1-1.6,1.3-3.6,2.2-5.3
			c0.9-1.8,1.6-3.4,2.1-5.2C72.4,49.4,71.4,49.3,71.2,49.9L71.2,49.9z"/>
	</g>
</g>
<g>
	<g>
		<path d="M78.8,82.3c-1.5,0.3-2.2,1.9-1.9,3.3c0.3,1.6,2.7,2.2,4,1.8s2.3-1.9,1.9-3.2c-0.5-2-2.5-2.1-4.2-1.8c-0.3,0-0.3,0.5,0,0.5
			c1.1-0.2,2.3-0.4,3.1,0.5c1,0.9,0.9,2.4-0.2,3.3c-0.9,0.7-2.4,0.7-3.2,0c-0.7-0.6-1-1-0.9-1.9c0.1-0.9,0.5-1.7,1.5-1.9
			C79.2,82.6,79.1,82.1,78.8,82.3L78.8,82.3z"/>
	</g>
</g>
<g>
	<g>
		<path d="M60.2,54.7c-1.4,0.1-2.9,1.1-2.3,2.8c0.6,1.7,2.4,2.3,4,1.9c1.6-0.2,2.3-1.5,1.8-2.9c-0.6-1.7-2.2-2-3.8-1.8
			c-0.3,0-0.3,0.5,0,0.5c1-0.2,2.1-0.2,2.8,0.5c1.1,1,0.8,2.8-0.7,3.2c-1,0.3-2.4,0.1-3.1-0.8c-0.2-0.3-0.5-0.7-0.6-1
			c-0.3-1.3,1-1.8,2-1.9C60.5,55.2,60.5,54.7,60.2,54.7L60.2,54.7z"/>
	</g>
</g>
<line class="st0" x1="25.8" y1="116.4" x2="86.5" y2="116.7"/>
</svg>
