<?xml version="1.0" encoding="utf-8"?>
<!-- Generator: Adobe Illustrator 21.0.0, SVG Export Plug-In . SVG Version: 6.00 Build 0)  -->
<svg version="1.1" id="Слой_1" xmlns="http://www.w3.org/2000/svg" xmlns:xlink="http://www.w3.org/1999/xlink" x="0px" y="0px"
	 viewBox="0 0 109.1 148.1" style="enable-background:new 0 0 109.1 148.1;" xml:space="preserve">
<g>
	<g>
		<path d="M28.9,106.8c0.9-2.7,1.4-6.2-0.6-8.6c-2.4-2.8-10.3-1.4-10.1-6c0-0.2-0.2-0.5-0.5-0.5c-4.7,0.5-4.4-5-3.7-7.9
			c0-0.2,0-0.5-0.2-0.6c-3.1-1.8-4.1-4.9-3.4-8.3c0.5-2.4-0.4-3.7-1.2-6c-0.8-2.4,1.1-3.9,0.6-6.1c-0.2-0.9-0.8-1.7-1.1-2.6
			c-1-2.2-0.1-3.5,1.1-5.3c1.2-1.8,1.2-3.3,1-5.4c-0.2-1.9-0.3-3.1,1.5-4.4c0.8-0.6,1.4-0.9,1.9-1.7c1-1.4,1.6-2.7,3.5-3.2
			c1.5-0.4,3.1,0,4.6,0.3c3.1,0.7,6.2,1.8,9.3,2.6c11.6,2.7,23.8,3.4,35.4,0.4c5.5-1.4,10.7-3.7,15.5-6.8c2.6-1.7,4.7-4.3,8.1-3.8
			c3.1,0.5,6.8,1.8,8,5c1.2,3.1,0.8,7.2,0.9,10.5c0,1.4-0.4,3.7,0,4.9c0,0.1,0.1,0.1,0.1,0.2c0.7,0.4,1,1,1.2,1.8
			c0,0.4,0.1,0.8,0.1,1.2c0.1,3.7-0.8,7.4-0.8,11c0,3.5,2.7,6.6-1.4,9.1c-0.2,0.1-0.3,0.5-0.2,0.7c1.6,2.1-0.7,4.2-1.3,6.3
			c-0.6,2.2,0.9,6.2-2.2,7c-0.2,0.1-0.4,0.4-0.3,0.6c2,5.2-4.7,9.3-8.7,11c-2.3,1-4.5,0.5-6.8,0.9c-1.9,0.4-5.5,3.7-7.1,1.2
			c-0.2-0.3-0.6-0.3-0.8-0.1c-2.1,2.1-5,2.8-7.9,1.8c-0.2-0.1-0.5,0-0.6,0.2c-1.5,3.6,0,7.8-1.7,11.3c-1,2-3.3,2.2-4.3,4.1
			c-0.3,0.6-0.4,1.2-0.5,1.8c0,0.5,0,0.9,0,1.4c0,0.3,0,0.7,0,1c0.1,1.2-0.8,1.8-2.5,2c-0.4-0.5-1.1,0.2-0.7,0.7
			c1.5,1.7,3.7,0.3,4.1-1.7c0.5-2.5-0.5-4.6,2.3-6.3c1.1-0.7,2-1.5,2.6-2.7c0.6-1.3,0.7-2.9,0.7-4.3c0-1.5-0.4-4.4,0.4-5.7
			c0.6-1,3.3-0.3,4.6-0.6c1.6-0.4,2.9-1.2,4.1-2.3c-0.3,0-0.5-0.1-0.8-0.1c0.9,1.4,2.5,1.6,4,1.1c1-0.3,1.8-1.1,2.7-1.4
			c1.3-0.5,2.7-0.5,4-0.6c1.6,0,2.9-0.2,4.4-0.8c4.5-1.9,11.5-6.5,9.3-12.3c-0.1,0.2-0.2,0.4-0.3,0.6c3-0.7,2.6-3.8,2.7-6.2
			c0.1-2.8,3.4-5.9,1.3-8.6c-0.1,0.2-0.1,0.5-0.2,0.7c2-1.3,3.3-3.5,2.9-5.9c-0.1-0.8-0.6-1.5-0.8-2.3c-0.3-1.2-0.2-2.3-0.1-3.5
			c0.2-2.7,0.5-5.3,0.7-8c0.1-1.2,0.1-2.4-0.3-3.5c-0.2-0.6-0.6-1-0.8-1.6c-0.4-1.1-0.1-2.7-0.1-3.9c-0.1-3.7,0.3-8.2-1.1-11.6
			c-1.1-2.7-3.7-4.1-6.4-4.9c-3.2-0.9-5.1-1.1-7.7,0.9c-7.1,5.5-15.4,8.9-24.3,10.3c-9.7,1.5-19.6,0.6-29.1-1.6
			c-3.7-0.9-7.4-2.4-11.2-2.9c-2.8-0.3-5.2,0.3-6.8,2.8c-0.6,1-1.4,1.7-2.4,2.4c-0.4,0.3-0.8,0.5-1.1,0.9c-0.8,1-0.7,2.3-0.6,3.6
			c0.2,2,0.5,3.8-0.8,5.6c-0.8,1.1-1.8,2.1-1.9,3.5c-0.1,1.4,0.7,2.5,1.2,3.7c1,2.1-0.3,3.5-0.4,5.5c-0.1,1.2,0.5,2.3,1,3.4
			c0.6,1.5,0.9,2.5,0.6,4.1c-0.1,0.7-0.3,1.4-0.4,2.2c0,1.5,0.4,3,1.1,4.2c0.7,1.3,2.6,2.3,2.6,3.7c0,2.9-0.6,6.3,2.8,7.7
			c0.4,0.2,1.4,0.2,1.6,0.5c0.2,0.2,0.4,1.3,0.6,1.6c0.8,1.1,2.1,1.8,3.4,2.1c2.3,0.6,5.2,0.4,6.7,2.7c1.4,2.1,0.9,5,0.1,7.3
			C27.8,107.2,28.7,107.4,28.9,106.8L28.9,106.8z"/>
	</g>
</g>
<g>
	<g>
		<path d="M27.7,107c0.3,1.1,1.3,1.8,2.5,1.4c1.3-0.4,2.1-2,2.3-3.3c0.6-3.7-1.9-6.3-2.8-9.6c-0.2-0.6-0.2,0.5,0-0.3
			c0.2-0.6,0.6-1.2,0.9-1.8c0.8-1.7,1.6-3.8,1.3-5.6c-0.3-1.8-1.7-3.1-2.6-4.6c-1.8-2.7-0.7-5.7-1.9-8.6c-0.8-1.8-1.9-3.4-2-5.5
			c-0.1-1.5,0.4-3,0.5-4.4c0.1-1.2,0-2.2-0.3-3.3c-0.3-1.3-1.6-3.5-1.3-4.9c0.8-3.2,2.5-1,3.4-0.3c0.4,0.3,0.7,0.5,1.1,0.7
			c0.8,0.5,1.7,0.9,2.7,1c0.9,0.1,1.8,0,2.7-0.3c0.4-0.1,1.5-1.1,1.8-1.2c1.1-0.2,2.7,1.4,3.8,1.8c1.1,0.4,2.2,0.7,3.3,0.6
			c0.8,0,1.6-0.6,2.4-0.6c1.2,0,2.3,0.9,3.5,1.2c1.9,0.4,3.4,0,5.2-0.5c2.6-0.7,4.9,1.1,7.7,0.3c1.5-0.4,2.5-1.7,4.2-1.6
			c1,0.1,1.7,0.4,2.8,0.3c1.1-0.1,2.2-0.5,3-1.2c0.6-0.4,1.3-1.7,1.8-2c0.7-0.3,2,0.5,2.9,0.5c1.1,0.1,2.2-0.1,3.3-0.5
			c2.6-1,4.3-3.1,5.4-5.6c-0.2,0-0.4,0-0.6,0c2.4,4.8,2.9,10,1.7,15.2C86,66.4,85.6,68,86,69.9c0.2,1,0.7,2,1,3.1
			c0.4,1.8-0.3,3-1.1,4.5c-1.9,3.4-0.4,8.3-3,11.3c-3.3,3.8-10.9,2.5-15.4,2.5c-3.7,0-7.5,0.2-10.9,1.7c-3.7,1.6-5.1,4.3-7.5,7.3
			c-2.2,2.7-2.2,7.7-2.1,11.1c0.2,3.6,1.4,7,4.2,9.5c0.4,0.3,0.9-0.2,0.5-0.5c-4.5-4-4.3-10-3.5-15.5c0.2-1.6,0.3-2.7,1.4-4.1
			c0.5-0.6,1-1,1.4-1.7c1.3-2,2.5-3.6,4.7-4.8c7.9-4.3,17.2,0,25.2-3.3c3.1-1.3,4-3.9,4.3-7.1c0.2-2.1,0.3-4.1,1.3-6
			c0.8-1.5,1.5-2.5,1.4-4.2c-0.3-2.6-1.6-4.4-1.1-7.2c0.4-2,1-4,1.1-6c0.2-4-0.7-7.9-2.5-11.5c-0.1-0.2-0.5-0.3-0.6,0
			c-1.8,4.2-6.2,7.2-10.8,4.8c-0.2-0.1-0.4-0.1-0.5,0.1c-0.7,1.5-1.9,2.6-3.5,3.1c-1.7,0.5-2.8-0.1-4.4-0.2c-2.1-0.1-3.3,2-5.5,1.9
			c-1.9,0-3.2-1.5-5.1-1.1c-1.7,0.3-2.6,1.3-4.5,1.2c-1.6-0.1-3.1-0.7-4.4-1.7c-0.1-0.1-0.3-0.1-0.4,0c-3.3,2-6.7,0-9.6-1.8
			c-0.2-0.1-0.4,0-0.5,0.1c-1.5,2-4.1,2-6.2,0.9c-1.3-0.7-2.2-2.2-3.6-2.8c-1.1-0.5-1.8,0.2-2.2,1.4c-0.7,1.9,0.4,4,0.9,5.8
			c0.9,3.2-0.5,6.1,0,9.2c0.5,2.8,2.5,4.9,2.6,7.9c0.1,2.5,0.2,4.1,1.7,6.2c1.6,2.3,2.6,4,1.7,6.9c-0.4,1.5-1.1,2.9-1.9,4.2
			c-0.1,0.1-0.1,0.3,0,0.4c0.7,1.2,1.3,2.5,1.9,3.9c0.4,1,0.7,2,0.9,3.1c0.1,0.7,0.2,1.4,0.2,2.1c0,0.3-0.1,0.6-0.1,0.9
			c-0.3,1.5-1.3,1.9-3.2,1.3C28.3,106.3,27.6,106.5,27.7,107L27.7,107z"/>
	</g>
</g>
<g>
	<g>
		<path d="M51.2,120.8c1.3,2.3,1.7,4.8,1.4,7.5c-0.1,0.6,0.9,0.9,1,0.3c0.4-2.9-0.1-5.7-1.5-8.2C51.8,119.7,50.9,120.2,51.2,120.8
			L51.2,120.8z"/>
	</g>
</g>
</svg>
