<?xml version="1.0" encoding="utf-8"?>
<!-- Generator: Adobe Illustrator 21.0.0, SVG Export Plug-In . SVG Version: 6.00 Build 0)  -->
<svg version="1.1" id="Слой_1" xmlns="http://www.w3.org/2000/svg" xmlns:xlink="http://www.w3.org/1999/xlink" x="0px" y="0px"
	 viewBox="0 0 109.1 148.1" style="enable-background:new 0 0 109.1 148.1;" xml:space="preserve">
<style type="text/css">
	.st0{fill:none;stroke:#000000;stroke-miterlimit:10;}
</style>
<g>
	<g>
		<path d="M51.7,61.5c0,2.1,0.8,3.7,2.6,4.9c0.2,0.2,0.5,0,0.7-0.2c4.8-6.4,11-13.1,19.8-10.5c8.5,2.5,11.6,11.8,8.9,19.7
			c-2.8,8.1-11.2,14.8-19.3,17.2c-4.2,1.3-8.9,1.3-13.2,1.2c-4.1-0.1-8.4-0.6-12.3-2c-2.3-0.8-4.3-1.9-6.2-3.3
			c-1.1-0.8-2.3-1.5-3.7-1.1c-3.1,1-2.1,5.2-2.2,7.6c0.2-0.2,0.4-0.3,0.6-0.5c-1.5-0.3-2.9-0.7-4.4-1c-1.2-0.3-1.6-0.2-2.3-1.5
			c-0.7-1.4-0.2-1.8,0.5-3.1c1.4-2.9,3-5.7,5.2-8c1.9-2.1,4.3-3.8,7-4.6c2.9-0.9,6-0.7,9-1.1c4-0.6,8-1.6,6.1-6.4
			c-1.1-2.7-2.3-5.1-2.8-8c-0.3-1.5-0.4-3.1-0.3-4.6c0-0.6,0-2.1,0.6-2.5c0.4-0.3,2.1,0.1,2.5,0.1c0.6,0,0.6-1,0-1
			c-1.1-0.1-2.2-0.1-3.3-0.2c-0.2,0-0.5,0.2-0.5,0.4c-0.4,2.7-0.4,5.4,0,8.1c0.5,2.9,1.7,5.3,2.8,8c0.2,0.4,0.4,0.9,0.5,1.3
			c-0.6,1-1.3,2-1.9,3c-0.6,0.3-1.9,0.4-2.6,0.6c-1.8,0.3-3.6,0.5-5.4,0.6c-2.6,0.2-5.1,0.6-7.5,1.8c-4.8,2.5-7.9,7.3-10.2,12.1
			c-0.6,1.2-2.1,3.6-1.1,5c0.5,0.6,2,0.7,2.6,0.9c1.7,0.4,3.5,0.8,5.2,1.3c0.3,0.1,0.6-0.2,0.6-0.5c0-1.1-0.1-2.2-0.1-3.3
			c0-0.4,0-1.8,0.4-2.3c0.5-0.1,1-0.2,1.6-0.4c0.8-0.6,1.6-0.6,2.2,0.1c1.9,0.8,3.6,2.4,5.6,3.2c3.7,1.5,7.7,2.2,11.7,2.4
			c4.5,0.3,9.3,0.3,13.7-0.7c4.3-0.9,8.3-3.2,11.9-5.8c6.1-4.5,11.1-11.2,10.9-19.1C85.5,62.1,81,56,74,54.5c-9-2-15,4.7-19.9,11.2
			c0.2-0.1,0.5-0.1,0.7-0.2c-1.4-1-2.1-2.3-2.1-4C52.7,60.9,51.7,60.9,51.7,61.5L51.7,61.5z"/>
	</g>
</g>
<g>
	<g>
		<path d="M48.6,53.8c0.4,0,0.8,0.1,1.2,0.1c1-0.2,1.5,0.3,1.4,1.4c0.1,0.7,0.1,1.5,0.1,2.3c0.1,1.4,0.1,2.9,0.4,4.3
			c0.1,0.6,1.1,0.4,1-0.3c-0.5-2.4,0-4.9-0.6-7.3c-0.3-1.5-2.1-1.3-3.5-1.4C48,52.8,48,53.8,48.6,53.8L48.6,53.8z"/>
	</g>
</g>
<g>
	<g>
		<path d="M67.5,82.9C61.6,80,59.7,75,55.9,70.1c-1.3-1.7-3-2.9-4.1-4.8c-1.9-3-1.8-7-2.2-10.5c-0.1-0.9-1.6-1-1.5,0
			c0.4,3,0.4,6.4,1.3,9.4c0.8,2.7,2.6,3.6,4.4,5.6c4.7,5.2,6.2,11,12.9,14.4C67.6,84.6,68.4,83.3,67.5,82.9L67.5,82.9z"/>
	</g>
</g>
<path class="st0" d="M70.1,84.5l-0.7,1.2c-0.3,0.5-0.9,0.7-1.4,0.4l0,0c-0.5-0.3-0.7-0.9-0.4-1.4l0.7-1.2c0.3-0.5,0.9-0.7,1.4-0.4v0
	C70.2,83.4,70.3,84,70.1,84.5z"/>
</svg>
