<svg width="22" height="17" viewBox="0 0 22 17" fill="none" xmlns="http://www.w3.org/2000/svg">
<path opacity="0.7" d="M11.4874 16.2221L6.97385 16.134C5.51246 16.1033 4.04744 16.1646 2.61471 15.8465C0.435191 15.3713 0.280786 13.041 0.119218 11.0864C-0.103406 8.33848 -0.0172219 5.54066 0.402899 2.81565C0.640072 1.28663 1.57344 0.374258 3.01686 0.274974C7.88948 -0.085341 12.7945 -0.0426398 17.6563 0.12546C18.1698 0.14087 18.6868 0.225097 19.1931 0.320969C21.6923 0.788567 21.7533 3.42923 21.9153 5.65217C22.0768 7.89806 22.0086 10.1555 21.6998 12.3861C21.4521 14.2329 20.978 15.7817 18.9776 15.9312C16.4712 16.1267 14.0223 16.2841 11.5089 16.234C11.509 16.2221 11.4946 16.2221 11.4874 16.2221ZM8.83387 11.5464C10.7226 10.3889 12.5754 9.25062 14.4534 8.10086C12.5611 6.94333 10.7118 5.8051 8.83387 4.65534V11.5464Z" fill="#F8F8F8"/>
</svg>
