<svg width="109" height="10" viewBox="0 0 109 10" fill="none" xmlns="http://www.w3.org/2000/svg">
<path d="M7.084 0.299999V8H5.665V5.096C4.939 5.36733 4.24967 5.503 3.597 5.503C2.61433 5.503 1.85533 5.26833 1.32 4.799C0.792 4.32233 0.528 3.64033 0.528 2.753V0.299999H1.947V2.599C1.947 3.14167 2.10467 3.556 2.42 3.842C2.73533 4.128 3.18633 4.271 3.773 4.271C4.44033 4.271 5.071 4.13533 5.665 3.864V0.299999H7.084ZM10.9031 0.299999H12.3111V5.767L16.4471 0.299999H17.7781V8H16.3701V2.544L12.2341 8H10.9031V0.299999ZM27.175 1.51H24.623V8H23.204V1.51H20.663V0.299999H27.175V1.51ZM34.7756 6.218H30.9256L30.1666 8H28.6926L32.1576 0.299999H33.5656L37.0416 8H35.5456L34.7756 6.218ZM34.3026 5.096L32.8506 1.73L31.4096 5.096H34.3026ZM45.0736 1.51H42.5216V8H41.1026V1.51H38.5616V0.299999H45.0736V1.51ZM51.5099 2.907C52.4339 2.907 53.1416 3.116 53.6329 3.534C54.1316 3.94467 54.3809 4.557 54.3809 5.371C54.3809 6.22167 54.1096 6.87433 53.5669 7.329C53.0242 7.77633 52.2616 8 51.2789 8H47.9679V0.299999H49.3759V2.907H51.5099ZM51.2129 6.9C51.7702 6.9 52.1992 6.77167 52.4999 6.515C52.8006 6.25833 52.9509 5.88433 52.9509 5.393C52.9509 4.46167 52.3716 3.996 51.2129 3.996H49.3759V6.9H51.2129ZM69.8157 6.79V9.639H68.4957V8H62.5887V9.639H61.2577L61.2687 6.79H61.5987C62.0827 6.768 62.42 6.41233 62.6107 5.723C62.8087 5.02633 62.9297 4.03267 62.9737 2.742L63.0617 0.299999H68.7047V6.79H69.8157ZM64.2277 2.874C64.191 3.87133 64.1104 4.70367 63.9857 5.371C63.861 6.031 63.663 6.504 63.3917 6.79H67.2967V1.51H64.2827L64.2277 2.874ZM77.9699 6.218H74.1199L73.3609 8H71.8869L75.3519 0.299999H76.7599L80.2359 8H78.7399L77.9699 6.218ZM77.4969 5.096L76.0449 1.73L74.6039 5.096H77.4969ZM89.6984 0.299999V8H88.2904V1.51H85.2544L85.1884 3.435C85.1517 4.513 85.0637 5.38933 84.9244 6.064C84.785 6.73133 84.5614 7.241 84.2534 7.593C83.9454 7.93767 83.52 8.11 82.9774 8.11C82.7867 8.11 82.5264 8.07333 82.1964 8L82.2954 6.757C82.3907 6.78633 82.5007 6.801 82.6254 6.801C83.0727 6.801 83.388 6.537 83.5714 6.009C83.762 5.47367 83.8794 4.634 83.9234 3.49L84.0334 0.299999H89.6984ZM99.2895 6.801V8H93.5145V0.299999H99.1355V1.499H94.9445V3.501H98.6625V4.678H94.9445V6.801H99.2895ZM108.309 6.801V8H102.534V0.299999H108.155V1.499H103.964V3.501H107.682V4.678H103.964V6.801H108.309Z" fill="#A87768"/>
</svg>
