<svg width="22" height="18" viewBox="0 0 22 18" fill="none" xmlns="http://www.w3.org/2000/svg">
<path opacity="0.7" d="M11.4874 17.0116L6.97385 16.9192C5.51246 16.887 4.04744 16.9512 2.61471 16.6177C0.435191 16.1193 0.280786 13.6757 0.119218 11.6259C-0.103407 8.74426 -0.0172219 5.81029 0.402899 2.95267C0.640072 1.34925 1.57344 0.392471 3.01686 0.288355C7.88948 -0.089494 12.7945 -0.0447149 17.6563 0.131566C18.1698 0.147726 18.6868 0.236051 19.1931 0.336589C21.6923 0.826942 21.7533 3.59611 21.9153 5.92723C22.0768 8.28241 22.0086 10.6497 21.6998 12.9888C21.4521 14.9256 20.978 16.5497 18.9776 16.7065C16.4712 16.9115 14.0223 17.0766 11.5089 17.024C11.509 17.0116 11.4946 17.0116 11.4874 17.0116ZM8.83387 12.1083C10.7226 10.8944 12.5754 9.70079 14.4534 8.49508C12.5611 7.28122 10.7118 6.0876 8.83387 4.88189V12.1083Z" fill="black"/>
</svg>
