<?xml version="1.0" encoding="utf-8"?>
<!-- Generator: Adobe Illustrator 21.0.0, SVG Export Plug-In . SVG Version: 6.00 Build 0)  -->
<svg version="1.1" id="Слой_2" xmlns="http://www.w3.org/2000/svg" xmlns:xlink="http://www.w3.org/1999/xlink" x="0px" y="0px"
	 viewBox="0 0 3000 1500" style="enable-background:new 0 0 3000 1500;" xml:space="preserve">
<style type="text/css">
	.st0{fill:#FFFFFF;stroke:#000000;stroke-width:4;stroke-miterlimit:10;}
	.st1{fill:#FFFFFF;}
</style>
<g>
	<g>
		<path d="M644.5,129.9c2.4,8.1,1.2,16.2,0,24.4c-1.1,7.1-1.7,14.1-1.9,21.3c-0.6,15.2-0.8,30.7-8.2,44.4c-0.9,1.7,1.7,3.2,2.6,1.5
			c7.3-13.6,8-28.9,8.5-44c0.3-8.8,1.2-17.3,2.5-26c1.1-7.5,1.6-14.9-0.5-22.3C646.8,127.2,643.9,128,644.5,129.9L644.5,129.9z"/>
	</g>
</g>
<g>
	<g>
		<path d="M645.1,144.4c-11.3,3.2-16.3,15.4-26,21.3c-13.6,8.2-25.9,18.3-38.8,27.6c-6.6,4.7-14.2,6.1-21.8,8.6
			c-7.4,2.5-14.7,5.3-21.9,8.2c-7.8,3.1-15.6,6.2-23.3,9.3c-5.7,2.3-11.7,4.2-15.8,9.1c-1.2,1.5,0.9,3.6,2.1,2.1
			c5-6,13.8-8.1,20.7-10.8c7.1-2.8,14.2-5.7,21.4-8.5c7.3-2.9,14.6-5.6,22-7.9c6.5-2,12.4-3.5,18-7.5c12.1-8.7,23.6-18.7,36.5-26.2
			c5.1-3,9.1-6.2,13-10.6c4.2-4.8,8.2-9.8,14.6-11.7C647.7,146.8,646.9,143.9,645.1,144.4L645.1,144.4z"/>
	</g>
</g>
<g>
	<g>
		<path d="M991.7,232.6c-5.6-11.3-17.8-15.2-28.9-19.2c-14.7-5.2-29.4-10.8-43.5-17.4c-13.3-6.2-24.4-15.5-34.9-25.6
			s-23.7-21.5-23.1-37.4c0.1-1.9-2.9-1.9-3,0c-0.5,13.8,8.4,24.3,17.6,33.4c10,9.9,20.2,19.9,32.3,27.2
			c12.7,7.7,27.4,12.9,41.2,18.2c13.4,5.1,32.6,8.2,39.6,22.4C989.9,235.8,992.5,234.3,991.7,232.6L991.7,232.6z"/>
	</g>
</g>
<g>
	<g>
		<path d="M644.3,130.7c18.5-1,37.3-2.3,55.9-1.3c9.4,0.5,18.4,4.4,27.7,4.3c8.5,0,17-2.4,25.5-3.1c18-1.5,35.5-2.9,53.5-0.7
			c17.8,2.2,35.6,5.5,53.4,2c1.9-0.4,1.1-3.3-0.8-2.9c-18.5,3.6-37-0.4-55.5-2.5c-17.6-2-34.9-0.3-52.5,1.1
			c-8.3,0.7-17.1,3.4-25.4,2.9c-8.8-0.5-17.1-3.8-26-4.3c-18.5-0.9-37.4,0.3-55.9,1.3C642.4,127.8,642.4,130.8,644.3,130.7
			L644.3,130.7z"/>
	</g>
</g>
<g>
	<g>
		<path d="M858.2,130.7c-0.5,7.9-0.9,15.8-1.4,23.7c-0.5,8-1.6,16.3-1,24.3c0.5,7,2.8,13.9,4.8,20.6c2.3,7.7,4.9,15.2,7.8,22.6
			c0.7,1.8,3.6,1,2.9-0.8c-2.8-7.1-5.3-14.4-7.5-21.7c-2.2-7.2-4.8-15-5-22.6c-0.4-15.2,1.6-30.9,2.5-46.1
			C861.4,128.8,858.4,128.8,858.2,130.7L858.2,130.7z"/>
	</g>
</g>
<g>
	<g>
		<path d="M770.8,186c-4.4,6.9-15,12.1-23.1,11.8c-8-0.3-15.7-4.8-21.2-10.3c-1.4-1.4-3.5,0.8-2.1,2.1c6.5,6.4,15.7,11.6,25,11.2
			c8.8-0.4,19.2-5.8,24-13.3C774.4,185.9,771.8,184.3,770.8,186L770.8,186z"/>
	</g>
</g>
<g>
	<g>
		<path d="M720.8,156c8.7,2.9,19,7.9,28.3,7c8.6-0.8,15.7-6.5,22.2-11.7c1.5-1.2-0.6-3.3-2.1-2.1c-6.4,5.2-13.9,11.1-22.6,10.9
			c-8.2-0.2-17.2-4.4-24.9-7C719.7,152.5,719,155.4,720.8,156L720.8,156z"/>
	</g>
</g>
<g>
	<g>
		<path d="M753.3,278.3c8-2.3,15.7-5.4,22.9-9.5c7.5-4.2,14-9.5,21-14.4c7.9-5.6,16.1-9.2,25.8-10.2c9.2-1,18.6-0.7,27.9-0.8
			c39.3-0.8,78.6-2.5,117.7-6.1c22.4-2.1,45-4.5,67.5-1.4c1.9,0.3,2.7-2.6,0.8-2.9c-19.5-2.7-39-1.4-58.6,0.4
			c-19.9,1.8-39.7,3.5-59.7,4.6c-20.3,1.1-40.6,1.8-60.9,2.3c-16.9,0.4-36.5-2-52.2,5.5c-8.6,4.1-15.6,10.7-23.5,15.9
			c-9.1,6.1-19.1,10.6-29.6,13.7C750.6,276,751.4,278.9,753.3,278.3L753.3,278.3z"/>
	</g>
</g>
<g>
	<g>
		<path d="M462.9,232.1c20.2-5.3,40.7-0.8,60.8,2.8c19.4,3.4,38.6,3.9,58.3,3.5c38.6-0.8,76.9,2.9,113.6,15.5
			c10.6,3.6,20.9,8,30.9,13c8.8,4.4,17.2,9.7,27,11.9c1.9,0.4,2.7-2.5,0.8-2.9c-9.5-2.2-17.7-7.2-26.2-11.6
			c-8.4-4.2-17-7.9-25.8-11.2c-18.2-6.7-37.1-11.4-56.3-14.3c-18.7-2.8-37.5-3.8-56.3-3.6c-21.3,0.3-42.2,0.8-63.3-2.9
			c-21.2-3.7-42.9-8.7-64.3-3.1C460.3,229.7,461.1,232.6,462.9,232.1L462.9,232.1z"/>
	</g>
</g>
<g>
	<g>
		<path d="M459.6,230.4c-17.7,1.8-29.6,15-41.3,27.1c-6.7,6.9-14.3,12.6-21.3,19.1c-6.5,6.1-11.4,13.6-15.8,21.3
			c-9.8,17.3-17.3,35.8-25.1,54c-7.6,17.8-14.9,35.8-20.9,54.2c-6.7,20.7-11.7,41.9-13.8,63.6c-0.2,1.9,2.8,1.9,3,0
			c3.7-37,15.9-72.2,30.1-106.3c7.3-17.6,14.8-35.3,23.2-52.5c3.8-7.8,7.9-15.6,13-22.7c5.6-7.8,12.9-13.4,20.1-19.5
			c15-12.9,27.3-33.2,48.8-35.4C461.6,233.2,461.6,230.2,459.6,230.4L459.6,230.4z"/>
	</g>
</g>
<g>
	<g>
		<path d="M321.1,469.7c0.2,16,0,32-0.6,47.9c-0.5,14.7-0.2,30.4-5.1,44.5c-2.3,6.5-6.4,12.1-9,18.5c-2.8,6.9-4.6,14.3-6.6,21.5
			c-4.6,15.9-9.2,31.9-13.7,47.8c-0.5,1.9,2.4,2.7,2.9,0.8c4.5-16,9.1-31.9,13.7-47.8c2.3-7.8,4-16.1,7.6-23.5
			c2.9-6.1,6.6-11.6,8.6-18.1c4.3-13.7,4.2-28.5,4.7-42.7c0.6-16.3,0.8-32.6,0.6-48.9C324.1,467.8,321.1,467.8,321.1,469.7
			L321.1,469.7z"/>
	</g>
</g>
<g>
	<g>
		<path d="M435.3,465c2.3,23.1,14.2,43.1,29.4,60.1c8,9,16.9,17.2,26,25c8.7,7.5,21.4,11.9,32.1,15.7c23.8,8.4,49.3,11.6,74.5,10.3
			c12.5-0.6,24.9-2.3,37.1-4.9c6.1-1.3,12.1-2.8,18.1-4.6c6.7-2,13.2-4.7,20.1-5.9c15.7-2.9,31.8-7.7,46.6-13.8
			c7.1-3,14.1-6.1,21.1-9.4c2.8-1.3,6-2.4,8.5-4.2c2.3-1.6,5.2-3.6,6.9-5.9c1.2-1.5-0.9-3.6-2.1-2.1c-1.5,1.9-3.6,2.8-5.4,4.2
			c-3,2.3-5.9,3.8-9.3,5.4c-6.7,3.2-13.5,6.3-20.4,9.1c-12.1,5-24.9,8.6-37.6,12.1c-5.9,1.6-12,2.1-17.8,4c-5.9,2-11.8,3.9-17.8,5.5
			c-12.1,3.2-24.5,5.5-37,6.8c-24,2.4-48.4,0.8-71.8-5.5c-12.1-3.3-23.8-7.8-34.9-13.5c-10.2-5.3-18.6-13.8-26.7-21.9
			c-18.2-18.2-33.9-40.2-36.5-66.5C438.1,463.1,435.1,463.1,435.3,465L435.3,465z"/>
	</g>
</g>
<g>
	<g>
		<path d="M456.6,512.8c-3.3,0.5-5.9-2.3-8.7-3.7c-2-1-4.1-1.8-6.2-2.5c-6.6-2.4-10.8-5.4-14.8-11.3c-1.1-1.6-3.7-0.1-2.6,1.5
			c3.9,5.7,7.9,9.4,14.4,11.9c3.9,1.5,7.5,2.9,11,5.1c2.5,1.6,4.6,2.4,7.6,1.9C459.3,515.4,458.5,512.5,456.6,512.8L456.6,512.8z"/>
	</g>
</g>
<g>
	<g>
		<path d="M469,529.9c-2.2,40.5,1.3,80.9,6.3,121.1c2.4,19.6,5.2,39.2,8,58.7c2.8,19.6,7.9,39.5,6.3,59.4c-0.2,1.9,2.8,1.9,3,0
			c1.5-18.9-3.2-37.7-5.8-56.4c-2.9-20.6-5.9-41.2-8.4-61.8c-5-40.2-8.5-80.6-6.3-121.1C472.1,528,469.1,528,469,529.9L469,529.9z"
			/>
	</g>
</g>
<g>
	<g>
		<path d="M471.7,639.8c-9.8,12.1-11.9,28-19.5,41.3c-7.7,13.2-18.4,24.5-23.1,39.4c-0.6,1.8,2.3,2.6,2.9,0.8
			c4.6-14.5,15.3-25.7,22.8-38.6c7.5-13,9.5-28.8,19.1-40.7C475.1,640.4,472.9,638.3,471.7,639.8L471.7,639.8z"/>
	</g>
</g>
<g>
	<g>
		<path d="M754.3,527.9c26.9,9.8,53.7,19.9,80.8,29.2c25.6,8.8,52.3,16.8,79.5,18.9c47.9,3.8,96.2-16.4,126.7-53.6
			c16.3-19.9,27.3-43.7,31.9-68.9c0.3-1.9-2.5-2.7-2.9-0.8c-8.3,45.8-38.2,85.9-80.2,106.2c-21.7,10.4-45.9,15.6-70,14.5
			c-27.1-1.2-54.1-9-79.7-17.6c-28.7-9.6-56.9-20.4-85.4-30.7C753.3,524.4,752.5,527.3,754.3,527.9L754.3,527.9z"/>
	</g>
</g>
<g>
	<g>
		<path d="M1078.4,471c-2.7,5.3-4.5,11-7.6,16.1c-3.2,5.2-7.2,9.7-11.1,14.3c-6.9,8.3-13.6,17.4-23.6,22c-1.8,0.8-0.2,3.4,1.5,2.6
			c10.3-4.7,17.2-14,24.2-22.5c3.6-4.4,7.4-8.7,10.6-13.5c3.6-5.5,5.5-11.8,8.5-17.6C1081.9,470.8,1079.3,469.3,1078.4,471
			L1078.4,471z"/>
	</g>
</g>
<g>
	<g>
		<path d="M1030.7,530.5c1.3,8.7,1.8,16.6,1,25.4c-0.8,8.1-1.4,16.3-1.9,24.4c-0.5,8.5-1,16.9-1.3,25.4c-0.4,8.5,0.2,17.7-1.2,26.1
			c-1.3,7.8-4.2,15.4-5.8,23.2c-1.5,7.5-2.7,15.1-3.7,22.7c-2,16.5-2.9,33.1-3.7,49.7c-0.4,9.1-0.9,18.2-1.5,27.2
			c-0.2,3.7-0.9,7.6-0.8,11.3c0.1,3.9,0.6,7.8,0.7,11.7c0.1,1.9,3.1,1.9,3,0c-0.2-6.6-0.5-13-0.1-19.6c0.5-7.9,0.9-15.8,1.3-23.7
			c0.8-16.9,1.6-33.9,3.4-50.8c1.8-16.7,4.9-33.2,9.8-49.3c1.1-3.5,0.8-7.3,0.9-11c0.2-4.6,0.3-9.1,0.5-13.7
			c0.3-8.5,0.7-16.9,1.2-25.4c0.6-9.5,1.2-18.9,2.1-28.3c0.9-9,0.2-17.2-1.1-26.2C1033.3,527.8,1030.4,528.6,1030.7,530.5
			L1030.7,530.5z"/>
	</g>
</g>
<g>
	<g>
		<path d="M1027.7,628.4c-0.1,4.2,2,7.4,3.9,11c2.2,4.1,4.3,8.2,6.5,12.4c4.4,8.3,8.8,16.7,13.1,25c9.1,17.3,18.2,34.6,27.3,51.9
			c0.9,1.7,3.5,0.2,2.6-1.5c-8.5-16.1-17-32.3-25.5-48.4c-4.1-7.7-8.1-15.4-12.2-23.1c-2.2-4.1-4.3-8.2-6.5-12.4
			c-2.3-4.4-6.4-9.7-6.3-14.8C1030.7,626.4,1027.7,626.4,1027.7,628.4L1027.7,628.4z"/>
	</g>
</g>
<g>
	<g>
		<path d="M1034.1,235.9c26.7,9.5,47.2,29.7,66,50.1c11.2,12.2,20.2,24.7,26.6,40c5.9,14.2,11.3,28.8,16.8,43.1
			c5.8,15,12,29.9,17.2,45.1c5,14.8,7.8,30,9.2,45.5c2.7,30.2,1.7,60.5,7.8,90.4c6.9,33.6,19.7,65.6,32.5,97.3
			c0.7,1.8,3.6,1,2.9-0.8c-11.7-29.2-23.5-58.5-30.7-89.1c-7.4-31.7-6.7-63.7-9.3-95.9c-1.2-15.2-3.7-30.1-8.3-44.7
			c-5-15.5-11.4-30.7-17.3-45.9c-5.8-15-11.5-30.1-17.6-45.1c-5.6-13.7-12.9-25.7-22.8-36.8c-20.3-22.8-42.9-45.8-72.3-56.3
			C1033.1,232.3,1032.3,235.2,1034.1,235.9L1034.1,235.9z"/>
	</g>
</g>
<g>
	<g>
		<path d="M459.3,971.8c-7.3,11.6-8.8,25.1-10.8,38.4c-2.2,15.1-5.1,30.2-8.1,45.2c-6,30-12.9,59.9-17.5,90.2
			c-9.5,61.5-6.8,124.3-4.3,186.2c1.5,36.2,3.7,72.3,6.5,108.4c0.2,1.9,3.2,1.9,3,0c-4.9-62.3-7.9-124.8-8.6-187.3
			c-0.3-31.3,0.3-62.6,4.4-93.6c4-30.2,10.5-60.1,16.7-89.9c3.5-16.9,6.9-33.8,9.6-50.8c2.5-15.3,3.2-31.8,11.7-45.2
			C462.9,971.7,460.3,970.2,459.3,971.8L459.3,971.8z"/>
	</g>
</g>
<g>
	<g>
		<path d="M1044.3,973c3.9,30.3,8.4,60.5,13.4,90.6c5.1,30.7,12.4,61.3,15.5,92.2c3.1,30.8,2.4,62.1,2.1,93c-0.3,31-1.4,62-3.2,92.9
			c-2.1,34.9-5.1,69.7-9.1,104.4c-0.2,1.9,2.8,1.9,3,0c7.1-61.6,11.2-123.5,12.2-185.5c0.5-30.9,0.8-62.1-1-93
			c-1.8-30.1-8.8-59.6-13.9-89.3c-6-35-11.3-70.2-15.9-105.5C1047,971.1,1044,971,1044.3,973L1044.3,973z"/>
	</g>
</g>
<g>
	<g>
		<path d="M685.3,1452.2c3-18.8,7.1-37.5,12.4-55.8c4.5-15.6,9.3-31.5,17.7-45.5c3.9-6.6,8.6-12.7,14.6-17.6
			c6.7-5.5,17.2-11.8,25.9-7.4c7.3,3.6,13.5,11.9,18.3,18.3c4.8,6.3,8.9,13.1,12.4,20.2c7.5,14.7,12.6,30.5,16.7,46.5
			c3.1,11.9,3.6,30.4,16.4,36.5c6.4,3,13.8,2.7,20.7,2.7c9.6,0,19.2-0.1,28.9-0.1c19.9-0.1,39.8-0.1,59.7-0.2
			c44.5-0.1,88.9-0.3,133.4-0.4c1.9,0,1.9-3,0-3c-40.8,0.1-81.6,0.3-122.5,0.4c-20.2,0.1-40.5,0.1-60.7,0.2
			c-10.3,0-20.6,0.1-30.9,0.1c-8.7,0-19.8,1.6-27.8-2.5c-8.1-4.1-9.5-13.8-11.3-21.8c-1.9-8.1-3.9-16.2-6.3-24.2
			c-4.6-15.4-10.5-30.7-18.8-44.5c-3.8-6.4-8.2-12.5-13.2-18.2c-4.5-5.2-10-11.8-17-13.6c-13.7-3.6-28,9.2-35.6,19.1
			c-10.2,13.3-15.9,29.5-20.8,45.4c-6.6,21.2-11.6,42.9-15.1,64.9C682.1,1453.3,684.9,1454.1,685.3,1452.2L685.3,1452.2z"/>
	</g>
</g>
<g>
	<g>
		<path d="M426.8,1440.7c16.1,3.5,32.3,7,48.8,8.6c16.3,1.6,32.8,1.1,49.2,2.3c34,2.6,67.5,7.6,101.7,5.8c19.6-1.1,39-3.5,58.5-5.9
			c1.9-0.2,1.9-3.2,0-3c-33.7,4.2-67.3,7.9-101.3,5.6c-16.4-1.1-32.8-3.1-49.2-4.7c-16.4-1.5-32.9-1.6-49.3-2.4
			c-19.5-1-38.5-5.1-57.5-9.2C425.8,1437.4,424.9,1440.3,426.8,1440.7L426.8,1440.7z"/>
	</g>
</g>
<g>
	<g>
		<path d="M683.7,137c5.8,21.6,13.4,42.5,22,63.1c4,9.7,8.3,19.3,12.6,28.9c4.3,9.6,8.3,19.7,13.5,28.9c4,7.1,9.5,13.8,17.3,16.7
			c2.8,1.1,6.7,2,9.5,0.2c3.1-2,5-6.8,7.1-9.6c5.8-7.4,7.4-15.9,11-24.5c4.5-10.7,9.1-21.3,13.7-32c5.2-12.1,10.4-24.3,15.6-36.4
			c4.9-11.4,9.3-23,15.9-33.6c1-1.6-1.6-3.2-2.6-1.5c-10.6,17.1-17.3,37-25.2,55.4c-4.2,9.7-8.3,19.4-12.5,29.1
			c-3.5,8.3-7.5,16.5-10.4,25c-1.4,4.3-2.3,8.7-4.8,12.5c-1.2,1.9-2.7,3.7-4.1,5.5c-1.5,1.9-2.5,4.3-4.1,6.1
			c-4,4.7-12.1-0.7-15.6-3.7c-3.6-3.2-6.4-7.3-8.7-11.5c-9.6-17.7-17.2-36.9-25-55.5c-8.7-20.9-16.5-42.1-22.3-64
			C686.1,134.4,683.2,135.2,683.7,137L683.7,137z"/>
	</g>
</g>
<g>
	<g>
		<path d="M552,510.2c-2.2,8.6-1.6,17.7,7.5,21.7c8.3,3.6,17,2.5,20.5-6.8c3-8,2.1-18.7-7-21.9c-6.7-2.3-21.3-2.7-21.1,7.4
			c0,1.9,3,1.9,3,0c1.2-1.7,2.5-3.3,3.7-5c0.8-0.2,1.7-0.3,2.5-0.5c1.3-0.1,2.6-0.1,3.8-0.1c3.2,0.1,6.8,0.3,9.5,2.1
			c5.6,3.8,4.8,14.2,1.5,19.4c-3.8,6-11.7,4.7-17.1,1.5c-6.2-3.7-5.5-11.1-3.9-17.2C555.4,509.1,552.5,508.3,552,510.2L552,510.2z"
			/>
	</g>
</g>
<g>
	<g>
		<path d="M926.2,511.6c-1.7,4-3.1,8.6-0.9,12.7c1.9,3.5,6.1,6,9.5,7.6c7.2,3.6,14.8,1.6,17.9-6.2c2.4-5.9,3.2-17.6-4.1-20.4
			c-7.1-2.8-18.1-2.1-21.6,5.7c-0.8,1.7,1.8,3.3,2.6,1.5c2.7-6.1,10.5-6.2,16.2-4.9c6.3,1.5,6.1,10.9,4.4,16
			c-2.4,7.4-9.3,8.2-15.5,4.8c-2.2-1.2-4.8-2.7-6.2-4.8c-2.3-3.6-1-7.7,0.5-11.3C929.8,510.6,926.9,509.8,926.2,511.6L926.2,511.6z"
			/>
	</g>
</g>
<g>
	<g>
		<path d="M431.7,719.2c-5.3-3.5-8.4-8.8-14.1-11.9c-5.2-2.7-10.8-4.6-16.3-6.7c-13.9-5.2-27.9-10.1-41.6-15.9
			c-12.7-5.4-24.5-12.1-36.2-19.2c-11.2-6.8-22.5-13.3-35.2-16.7c-1.9-0.5-2.7,2.4-0.8,2.9c13.3,3.6,25,10.6,36.7,17.7
			c11.5,7,23.2,13.3,35.7,18.6c12.2,5.2,24.8,9.6,37.2,14.2c6.3,2.4,13,4.5,19,7.7c5.7,3,8.9,8.4,14.1,11.9
			C431.8,722.8,433.3,720.2,431.7,719.2L431.7,719.2z"/>
	</g>
</g>
<g>
	<g>
		<path d="M1081.2,729.2c12.3-8,24.5-16,36.8-23.9c10.7-6.8,23.6-10.6,33.2-18.9c4.8-4.2,8.5-8.9,14.4-11.7c6-2.8,11.2-5.8,16.7-9.5
			c9.5-6.6,21.8-7.3,30.8-14.6c1.5-1.2-0.6-3.3-2.1-2.1c-5.2,4.2-11.7,5.7-18,7.9c-5.2,1.8-9.7,4.4-14.2,7.6
			c-5.2,3.7-10.5,5.9-16.1,8.8c-5,2.6-8.4,6.7-12.4,10.4c-9.5,8.8-22.9,12.6-33.8,19.5c-12.3,7.9-24.6,15.9-36.8,23.9
			C1078.1,727.6,1079.6,730.2,1081.2,729.2L1081.2,729.2z"/>
	</g>
</g>
<path class="st0" d="M603.1,776.6c0-1.1,0-2.4,0-3.7c-36.8,0-73.4,0-110.1,0c0-0.1-0.1-0.2-0.1-0.3c0.3-0.2,0.6-0.5,0.9-0.7
	c34.1-23.7,68.1-47.5,102.2-71.2c0.9-0.7,1.6-1.5,2.5-2.3c1-0.9,1.9-1.9,3-2.6c0.7-0.5,1.6-0.6,2.5-0.9c0.4-0.1,0.6-0.3,1.2-0.4
	c0.3,25.2,0.5,50.3,0.7,75.5c1,0,2,0,3.2,0c-2,2.3-3.8,4.4-5.6,6.5C603.3,776.6,603.2,776.6,603.1,776.6z"/>
<g>
	<path class="st0" d="M606.6,970.6c0-0.4,0-0.9,0-1.4c0.4-0.1,0.9-0.1,1.4-0.2c0.2-62.9,0.5-125.8,0.7-188.8
		c-0.5-0.1-0.9-0.1-1.4-0.2c0-0.5,0-1,0-1.5c0.6,0,1.1,0,1.7,0c0,64,0,128,0,192C608.2,970.6,607.4,970.6,606.6,970.6z"/>
	<path class="st0" d="M605.1,967.4c-46.4,0-92.7,0-139.1,0c0.5-2,0.9-3.9,1.5-5.8c5.4-17.2,10.8-34.5,16.3-51.6
		c3.1-9.9,6.6-19.8,8.2-30.2c0.7-4.6,0.6-9.3,0.8-14c0.1-3.8-0.1-7.6-0.1-11.4c0-14.5,0-29,0-43.6c0-8.2,0.1-16.4,0.2-24.6
		c0-1.5,0-2.9,0-4.5c37.7,0,75.4,0,113.1,0"/>
</g>
<path class="st0" d="M466,974.3c0.4,2.2,0.8,4.4,1.2,6.4c2.4,10.9,5.9,21.4,11.4,31.2c2.8,5,6,9.8,8.9,14.8
	c2.5,4.3,4.5,8.6,5.2,13.6c0.8,5.7,0.4,11.5,0.1,17.1c-0.5,8.7,1.3,16.9,5.8,24.3c3.5,5.7,7.9,10.8,12.6,15.6
	c8.3,8.5,15.9,17.5,22.2,27.6c4.7,7.5,9.5,15.1,14.4,22.4c18,27.2,37.8,53,60.1,76.9c0.3,0.4,0.7,0.7,1.1,1.2
	c0-84.1,0-167.9,0-251.8c-47.7,0-95.4,0-143.1,0C466,973.9,466,974.1,466,974.3z"/>
<path class="st0" d="M891.7,709.1c0-1.5-0.4-2.7-1.8-3.4c-8.8-5.1-17-11.3-24.8-17.8c-13-10.9-25.1-22.9-36.7-35.3
	c-15.5-16.6-29.7-34.1-42.1-53.1c-13.3-20.3-24.1-41.9-31.1-65.3c-0.6-2.1-1-2.3-3.2-1.6c-1.5-1.5-2.2-1.4-3.4,0.3
	c-0.1,0.1-0.2,0.3-0.3,0.4c-3.2,4.8-6.4,9.7-9.7,14.4c-8.2,11.7-16.2,23.7-24.7,35.2c-9.3,12.7-19.9,24.4-30.5,36.1
	c-13.8,15.4-28.3,30.1-43.8,43.7c-6.7,5.8-12.9,12-18.5,18.9c-2.3,2.9-4.8,5.5-7.4,8.1c-1.5,1.5-2.8,2.8-2.1,5.1
	c0.1,0.2,0,0.4,0,0.6c0.1,6.2,0.2,12.4,0.2,18.6c0.1,8.8,0.2,17.4,0.3,26.2c0.1,7.9,0.1,15.9,0.2,23.8c0,2.6,0,5.2,0,7.8
	c0.1-0.1,0.2-0.1,0.4-0.2c0.5,0.5,1.1,1,1.6,1.5c0,0.1-0.1,0.2-0.1,0.3c91.9,0,183.8,0,275.8,0c0.1-0.4,0.2-0.8,0.3-1.2
	c0.5-0.1,0.9-0.2,1.3-0.3c0-0.5,0-1,0-1.4c0-6.1,0-12.1,0-18.2C891.7,737.9,891.7,723.5,891.7,709.1z"/>
<path class="st0" d="M896.9,772.8c36.7-0.2,73.2-0.3,109.6-0.5c-1.4-0.8-2.8-1.2-4.2-1.9c-10.3-4.8-20.7-9.7-31.1-14.6
	c-9.4-4.5-18.9-8.9-27.9-14.3c-12.8-7.5-25.3-15.4-37.7-23.4c-1.9-1.2-4.2-2.1-6.3-3.1c-0.5-0.2-1.1-0.3-1.8-0.4
	C897.4,734.3,897.2,753.5,896.9,772.8z"/>
<path class="st0" d="M891.7,967.4c-92.3,0-184.6,0-277,0c0-0.6,0.1-1.2,0.1-1.8c0-61.1,0-122.1,0-183.2c0-0.6,0-1.2,0-1.8
	c92.4,0,184.6,0,276.8,0C891.7,843,891.7,905.2,891.7,967.4z"/>
<path class="st1" d="M920.8,1001.6c0-0.5,0-1,0-1.6c0-61.9,0-123.8,0-185.7c0-0.5,0-1,0-1.6c-0.5-0.1-0.9-0.2-1.4-0.2
	c-0.1-0.5-0.2-1-0.2-1.5c0.6,0,1.3,0,1.9,0c0,63.2,0,126.3,0,189.5C921.1,1000.9,920.9,1001.3,920.8,1001.6z"/>
<path class="st1" d="M639.3,811.1c0,0.5,0,0.9,0,1.6c-0.5,0-1-0.1-1.4-0.1c0-0.5,0-1,0-1.4C638.4,811.1,638.8,811.1,639.3,811.1z"/>
<path class="st0" d="M850.3,1249.8c8.7-5.4,17.4-10.9,26.1-16.3c4.7-2.9,9.2-5.8,13.1-9.6c0.6-0.6,0.8-1.2,0.8-2
	c0-82.3,0-164.6,0-246.9c0-0.4,0-0.8,0-1.3c-92.2,0-184.2,0-276.1,0c0,2,0,3.8,0,5.7c0.1,17.3,0.2,34.6,0.2,51.9
	c0.1,12.6,0.1,25.3,0.2,38c0,8.5,0.1,17.1,0.1,25.6c0.1,12.7,0.1,25.5,0.2,38.3c0.1,17.3,0.2,34.6,0.2,51.9c0,7.8,0,15.5,0,23.3
	c0,6,0.1,11.9,0.1,17.8c0,0.5,0.3,1.2,0.7,1.5c7.2,5.2,14.2,10.5,21.6,15.5c19.8,13.3,41.2,22.6,64.6,27.4
	c11.1,2.3,22.3,4.2,33.6,5.6c10.4,1.3,21,2,31.5,1.7c13.5-0.4,26.5-2.9,39.3-7.2C822,1265.5,836.4,1258.2,850.3,1249.8z"/>
<path class="st0" d="M897.4,1217.8c-0.2-0.1-0.4-0.1-0.5-0.2c-0.1-0.3,0-0.6,0-0.8c0-81.1,0-162.1,0-243.2c0.3,0,0.6,0,0.8,0
	c47,0,94,0,141,0c0.4,0,0.8,0,1.2,0.1c-0.3,1.8-0.6,3.4-0.8,5c-2.4,14.3-7.2,27.6-15.9,39.5c-3,4.1-5.4,8.5-9.3,11.9
	c-0.1,0.1-0.2,0.2-0.3,0.4c-1.5,3.6-3.3,7.1-4.4,10.8c-1.5,5-0.7,9.6,3.8,13c3.8,2.9,4.9,6.6,3.3,11.1c-1.5,4.2-3.5,8-6,11.6
	c-9.7,13.8-19.4,27.6-29.1,41.4c-11.8,16.8-23.4,33.8-36.2,49.9c-12.4,15.6-25.6,30.4-40.6,43.6
	C902.2,1213.7,899.7,1215.7,897.4,1217.8z"/>
<path class="st0" d="M1012.2,844.5c-0.2-6.6-0.3-13.3-0.4-19.9c-0.1-13.1-0.1-26.3-0.2-39.4c0-1.5,0-3,0-4.6c-38.3,0-76.6,0-114.7,0
	c0,62.5,0,125,0,187.4c48.5,0,96.9,0,145.5,0c-1.1-3.3-2.3-6.4-3.4-9.7c-5.1-14.4-10.4-28.7-15.3-43.2c-3.8-11.1-6.8-22.4-8.7-34
	C1012.9,869,1012.5,856.8,1012.2,844.5z"/>
<g>
	<g>
		<path d="M752.9,533.1C752.8,533.3,752.7,533.1,752.9,533.1c-0.2,0,0.4,0.2,0.2,0.1s-0.4-0.3-0.7-0.4c0.3,0.2,0.6,0.9,0.8,1.3
			c0.4,0.7,1.4,0.9,2.1,0.5c0.7-0.4,0.9-1.3,0.5-2.1c-0.6-1.1-1.2-2.3-2.6-2.4c-1.2-0.1-2.3,0.4-3,1.4c-0.4,0.7-0.1,1.7,0.5,2.1
			C751.5,534,752.4,533.7,752.9,533.1L752.9,533.1z"/>
	</g>
</g>
<g>
	<g>
		<path d="M1046.6,971.1c0.1,0.1,0.2,0.2,0.2,0.4c0,0.1,0,0.1,0-0.1c0-0.8-0.7-1.5-1.5-1.5c-0.9,0-1.5,0.7-1.5,1.5
			c0,0.7,0.3,1.3,0.7,1.8c0.5,0.6,1.6,0.5,2.1,0C1047.2,972.6,1047.1,971.7,1046.6,971.1L1046.6,971.1z"/>
	</g>
</g>
<g>
	<g>
		<path d="M489.5,768.4c0.1,1,0.1,2-0.2,3c-0.5,1.9,2.4,2.7,2.9,0.8c0.3-1.2,0.4-2.5,0.3-3.8c-0.1-0.8-0.6-1.5-1.5-1.5
			C490.2,766.9,489.4,767.6,489.5,768.4L489.5,768.4z"/>
	</g>
</g>
</svg>
